<?xml version="1.0" encoding="utf-8" ?>
<svg baseProfile="full" height="200mm" version="1.1" viewBox="0,0,200,200" width="200mm" xmlns="http://www.w3.org/2000/svg" xmlns:ev="http://www.w3.org/2001/xml-events" xmlns:xlink="http://www.w3.org/1999/xlink"><defs /><rect fill="#1a1a1a" height="200" width="200" x="0" y="0" /><text alignment-baseline="middle" fill="#e1ed5e" style="dominant-baseline: central; font-size:9.0px; font-family:Arial;" text-anchor="middle" x="100.0" y="100.0">2024</text><line stroke="#e1ed5e" stroke-width="0.3" x1="100.0" x2="100.0" y1="15.0" y2="10.0" /><path d="M 100.0 14.0 a86.0,86.0 0 0,1 42.35913384403234,11.155469271406648" fill="none" id="id61" stroke="none" /><text fill="#e1ed5e" style="font-size:6.75px; font-family:Arial;" text-anchor="middle"><textPath startOffset="22.145653131862478" xlink:href="#id61">January</textPath></text><path d="M 100.36049292484886 79.00309439819443 l 0.044161431929005075 -2.5721820139539626 a23.57256108673405,23.57256108673405 0 0,0 0.4045351032815756,0.010419389275733023 l -0.08830984928132207 2.5710449073281847" fill="#ff0000" stroke="none" /><path d="M 100.72087961077811 79.0123766808444 l 0.5319408979368251 -15.486878845000119 a36.4960116636059,36.4960116636059 0 0,0 0.6259487258115364,0.026880931577947655 l -0.7977153843491976 15.475465344996339" fill="#ffb610" stroke="none" /><path d="M 101.44090949804482 79.04949213459386 l 0.7221717286438142 -10.500218439573093 a31.52502348141814,31.52502348141814 0 0,0 0.5395748037933566,0.041766502323162875 l -0.9023155272124044 10.486274170254877" fill="#ff730a" stroke="none" /><path d="M 103.23170211078529 79.25015418208739 l 2.3699888785058234 -15.217028715314846 a36.40048084336843,36.40048084336843 0 0,0 0.6165938064605662,0.10146027621162487 l -2.63086018801946 15.174102440607554" fill="#ffb510" stroke="none" /><path d="M 104.64783097203109 79.52079915486377 l 7.842990788756305 -34.55766454417862 a56.436488020972064,56.436488020972064 0 0,0 0.942940428685869,0.22253137367618925 l -8.435063371182059 34.41793702685621" fill="#5bff2a" stroke="none" /><path d="M 109.3889696526874 81.21577127319529 l 11.257207848897348 -22.52195660237795 a46.17862700292992,46.17862700292992 0 0,0 0.7060333366325267,0.36050565237126253 l -11.642168407243455 22.325392998333854" fill="#ceff1d" stroke="none" /><line stroke="#e1ed5e" stroke-width="0.3" x1="143.13028292997686" x2="145.6673583964461" y1="26.7553504044142" y2="22.446841604673864" /><path d="M 143.63769802327073 25.89364864446614 a86.0,86.0 0 0,1 29.32050498858742,28.57503671076993" fill="none" id="id62" stroke="none" /><text fill="#e1ed5e" style="font-size:6.75px; font-family:Arial;" text-anchor="middle"><textPath startOffset="20.669276256404974" xlink:href="#id62">February</textPath></text><path d="M 117.01052211995028 87.68569379921539 l 5.197136235433761 -3.762325842736178 a27.416020635610447,27.416020635610447 0 0,0 0.2727044175795264,0.38359291503545373 l -5.260955751543248 3.67255570099122" fill="#ff3905" stroke="none" /><line stroke="#e1ed5e" stroke-width="0.3" x1="172.87174338648825" x2="177.1583165268699" y1="56.24261187166439" y2="53.66864786411523" /><path d="M 173.72905801456457 55.72781907015455 a86.0,86.0 0 0,1 12.242430191666344,42.057860355516425" fill="none" id="id63" stroke="none" /><text fill="#e1ed5e" style="font-size:6.75px; font-family:Arial;" text-anchor="middle"><textPath startOffset="22.145653131862474" xlink:href="#id63">March</textPath></text><path d="M 118.36410011445183 89.81374322990088 l 13.56474026159736 -7.524132762464887 a36.51176173720438,36.51176173720438 0 0,0 0.2993175988950657,0.5507106691231624 l -13.691903210107768 7.290167259867121" fill="#ffb710" stroke="none" /><path d="M 118.70294669586156 90.45014215332178 l 4.479551460036652 -2.28729089356255 a26.02971976504563,26.02971976504563 0 0,0 0.19978440432401046,0.39970263891485724 l -4.5181557775723995 2.2100563984839425" fill="#ff2403" stroke="none" /><path d="M 119.31412917781788 91.75594674310238 l 14.8988444638331 -6.359430761555632 a37.199318688405086,37.199318688405086 0 0,0 0.2456468620444187,0.589463044306416 l -15.005817170414002 6.102735207807937" fill="#ffc011" stroke="none" /><path d="M 119.4528033332814 92.08871423366111 l 23.78266307455367 -9.67220202886879 a46.67423913195856,46.67423913195856 0 0,0 0.29547310453097797,0.7447852407357198 l -23.945194854050772 9.262515770919507" fill="#c8ff1d" stroke="none" /><path d="M 120.16314734710363 94.1308016681162 l 14.824505148615613 -4.315197394109006 a36.439782428889856,36.439782428889856 0 0,0 0.16967318449385713,0.6021102741677615 l -14.896396825184052 4.060079196038232" fill="#ffb610" stroke="none" /><path d="M 120.77682067341334 96.94652285012252 l 62.330462020240034 -9.160431449632455 a84.0,84.0 0 0,0 0.19742193377914985,1.4284467671996575 l -62.478528470574396 8.089096374232712" fill="#4dd2ff" stroke="none" /><line stroke="#e1ed5e" stroke-width="0.3" x1="184.99686870605535" x2="189.99668451229388" y1="99.2704041080226" y2="99.22748670261217" /><path d="M 185.99683186730306 99.26182062694052 a86.0,86.0 0 0,1 -10.086455211305974,41.156179273409016" fill="none" id="id64" stroke="none" /><text fill="#e1ed5e" style="font-size:6.75px; font-family:Arial;" text-anchor="middle"><textPath startOffset="21.40746469413373" xlink:href="#id64">April</textPath></text><path d="M 120.16314734710363 105.8691983318838 l 6.214329895365027 1.8089008639264474 a27.472249870326497,27.472249870326497 0 0,0 -0.1356915644919082,0.4516730869039696 l -6.182362010869489 -1.9153115544211405" fill="#ff3905" stroke="none" /><line stroke="#e1ed5e" stroke-width="0.3" x1="174.33088141563837" x2="178.70328620479359" y1="141.23008692659167" y2="143.65538615756765" /><path d="M 175.20536237346943 141.71514677278685 a86.0,86.0 0 0,1 -30.301960400862466,31.631185727798858" fill="none" id="id65" stroke="none" /><text fill="#e1ed5e" style="font-size:6.75px; font-family:Arial;" text-anchor="middle"><textPath startOffset="22.145653131862474" xlink:href="#id65">May</textPath></text><path d="M 117.62189284568427 111.42229804090321 l 12.423863065463815 8.052997938178457 a35.805510773414824,35.805510773414824 0 0,0 -0.33874666393515024,0.5129056241424147 l -12.283791962607937 -8.265083440659934" fill="#ffad10" stroke="none" /><path d="M 114.65682725009322 115.03919595460226 l 8.374155740047367 8.59262151214402 a32.998317749148356,32.998317749148356 0 0,0 -0.40906523953630197,0.3918752460456986 l -8.225418014645753 -8.7351088884953" fill="#ff870c" stroke="none" /><path d="M 112.7482090630111 116.68781488649013 l 3.7528162577512547 4.912556948416669 a27.181977485876104,27.181977485876104 0 0,0 -0.3732305696927246,0.2800791775848342 l -3.6679326991477637 -4.976255153265519" fill="#ff3505" stroke="none" /><line stroke="#e1ed5e" stroke-width="0.3" x1="143.1302829299769" x2="145.66735839644613" y1="173.24464959558577" y2="177.55315839532614" /><path d="M 143.63769802327073 174.10635135553383 a86.0,86.0 0 0,1 -40.68552437913181,11.842963189579606" fill="none" id="id66" stroke="none" /><text fill="#e1ed5e" style="font-size:6.75px; font-family:Arial;" text-anchor="middle"><textPath startOffset="21.407464694133747" xlink:href="#id66">June</textPath></text><path d="M 110.65571695917076 118.09573695890943 l 3.2891961886361294 5.585774215275212 a27.482259262893752,27.482259262893752 0 0,0 -0.40857944486136955,0.23589345247606047 l -3.1928242759143615 -5.6414145650274445" fill="#ff3a05" stroke="none" /><path d="M 106.0420521117495 120.11202640906438 l 2.0635116081819267 6.868759022859358 a28.172024168337234,28.172024168337234 0 0,0 -0.4643554331815869,0.13516709901056334 l -1.9452961626187328 -6.903169816172439" fill="#ff4406" stroke="none" /><path d="M 104.9986988182912 120.39639698878246 l 3.666002112330958 14.958539644598634 a36.40121682811602,36.40121682811602 0 0,0 -0.6081912642727969,0.14353148234942528 l -3.408678694318282 -15.019267270594284" fill="#ffb510" stroke="none" /><path d="M 104.29559338865022 120.5559693870025 l 1.007220991947115 4.819917064570453 a25.92403235529138,25.92403235529138 0 0,0 -0.43639221651450677,0.0872906651797216 l -0.9243322899016494 -4.836497126413036" fill="#ff2303" stroke="none" /><path d="M 101.08105385017728 120.97215588758144 l 0.41178493390285 7.988517708485821 a28.999123827681437,28.999123827681437 0 0,0 -0.4973684460894058,0.021359141119786602 l -0.2745907272126146 -7.994409418031439" fill="#ff4f07" stroke="none" /><line stroke="#e1ed5e" stroke-width="0.3" x1="101.45913802915013" x2="101.54496967792366" y1="184.9874750549273" y2="189.98673829345242" /><path d="M 101.47630435890484 185.9873277026323 a86.0,86.0 0 0,1 -42.54439059252881,-10.42667462771756" fill="none" id="id67" stroke="none" /><text fill="#e1ed5e" style="font-size:6.75px; font-family:Arial;" text-anchor="middle"><textPath startOffset="22.145653131862474" xlink:href="#id67">July</textPath></text><path d="M 98.55909050195518 120.95050786540614 l -0.25478967593664 3.704585969471355 a24.71333744550208,24.71333744550208 0 0,0 -0.42298760573788624,-0.032741915844696406 l 0.3183462764497623 -3.6996662866316052" fill="#ff1101" stroke="none" /><path d="M 97.48249496171623 120.84855314841334 l -0.7840888429696005 6.493380417174367 a27.54054925490306,27.54054925490306 0 0,0 -0.4688741502827053,-0.06070514594160988 l 0.8954408151430997 -6.47896367503236" fill="#ff3a05" stroke="none" /><path d="M 96.05791012581884 120.62667999033965 l -2.109285832892868 11.03667477704967 a32.236426338440836,32.236426338440836 0 0,0 -0.5426519049791059,-0.10854557884877974 l 2.2984342234029316 -10.998839801538029" fill="#ff7d0b" stroke="none" /><path d="M 95.70440661134978 120.55596938700252 l -2.08802945562443 9.99197682033456 a31.207814055205866,31.207814055205866 0 0,0 -0.5234554764478601,-0.11408468475486626 l 2.2592473486914266 -9.954660677445977" fill="#ff6f0a" stroke="none" /><path d="M 95.00130118170881 120.39639698878247 l -2.340067696418303 9.548274751446137 a30.8308426674891,30.8308426674891 0 0,0 -0.5129587254010399,-0.1303921020874536 l 2.503631715044721 -9.50669741752342" fill="#ff6909" stroke="none" /><path d="M 93.61358852112213 120.00534299687104 l -1.4653749299837888 4.590266097055874 a25.818492142486647,25.818492142486647 0 0,0 -0.4210593574772415,-0.13841057410429966 l 1.5439570251087738 -4.564434601549553" fill="#ff2103" stroke="none" /><line stroke="#e1ed5e" stroke-width="0.3" x1="58.13341422392154" x2="55.67067388415222" y1="173.97424548756322" y2="178.32567169271397" /><path d="M 57.64086615596768 174.84453072859336 a86.0,86.0 0 0,1 -31.369924170532247,-30.572349798747897" fill="none" id="id68" stroke="none" /><text fill="#e1ed5e" style="font-size:6.75px; font-family:Arial;" text-anchor="middle"><textPath startOffset="22.145653131862474" xlink:href="#id68">August</textPath></text><path d="M 85.08716467003676 114.78537596483092 l -5.339900136200444 5.294260238342616 a28.51955616615031,28.51955616615031 0 0,0 -0.34170936936782076,-0.35062391592379283 l 5.429996306719074 -5.2018136303510865" fill="#ff4906" stroke="none" /><path d="M 83.20337586046588 112.60449989151573 l -10.0923851127048 7.573513939554701 a33.61801690662106,33.61801690662106 0 0,0 -0.34242028199632807,-0.4645588762473127 l 10.220907414284959 -7.399148754038508" fill="#ff900d" stroke="none" /><path d="M 82.37810715431573 111.42229804090323 l -8.525001054374812 5.525802687305023 a31.159239061864774,31.159239061864774 0 0,0 -0.28708388099382554,-0.45134354428749673 l 8.618602626994527 -5.3786454683388545" fill="#ff6e0a" stroke="none" /><line stroke="#e1ed5e" stroke-width="0.3" x1="26.387840678322732" x2="22.057713659400548" y1="142.50000000000003" y2="145.00000000000006" /><path d="M 25.521815274538298 143.00000000000003 a86.0,86.0 0 0,1 -11.493303480769221,-40.785679425670985" fill="none" id="id69" stroke="none" /><text fill="#e1ed5e" style="font-size:6.75px; font-family:Arial;" text-anchor="middle"><textPath startOffset="21.40746469413373" xlink:href="#id69">September</textPath></text><path d="M 81.63589988554817 110.18625677009913 l -6.675982282645687 3.7030548352405006 a28.634222589825185,28.634222589825185 0 0,0 -0.23473878947562787,-0.431892933454282 l 6.738566421736644 -3.587907068311632" fill="#ff4a06" stroke="none" /><path d="M 79.94057633289273 106.21446072829308 l -10.395563686004904 3.220572203232368 a31.88300646264702,31.88300646264702 0 0,0 -0.1574772742692289,-0.5241906293345696 l 10.449317280277763 -3.0416439703070752" fill="#ff780b" stroke="none" /><path d="M 79.64726062577567 105.17358676015961 l -13.44357026152012 3.417302989805843 a34.87110453787167,34.87110453787167 0 0,0 -0.14249408254779378,-0.5814244830198968 l 13.500251870584208 -3.1860226821778466" fill="#ffa10e" stroke="none" /><path d="M 79.34024301695615 103.76489593502545 l -13.48431953817385 2.4572922061726703 a34.70639115136052,34.70639115136052 0 0,0 -0.10178092539249721,-0.5870453304355405 l 13.524515281058582 -2.2254538428165374" fill="#ff9f0e" stroke="none" /><path d="M 79.03789590574601 101.26102812881392 l -9.086967656688616 0.5466494092951143 a30.10339534296889,30.10339534296889 0 0,0 -0.026603389025043573,-0.5160986399333507 l 9.095012635170233 -0.39057897598503283" fill="#ff5f08" stroke="none" /><line stroke="#e1ed5e" stroke-width="0.3" x1="15.003131293944662" x2="10.003315487706104" y1="100.72959589197737" y2="100.7725132973878" /><path d="M 14.003168132696942 100.73817937305945 a86.0,86.0 0 0,1 10.791469493833604,-42.45332614584628" fill="none" id="id70" stroke="none" /><text fill="#e1ed5e" style="font-size:6.75px; font-family:Arial;" text-anchor="middle"><textPath startOffset="22.145653131862435" xlink:href="#id70">October</textPath></text><path d="M 79.00077361379809 100.18025310272382 l -13.251800364320468 0.11375076816710614 a34.25228856209608,34.25228856209608 0 0,0 0.0,-0.5880077417818425 l 13.251800364320468 0.11375076816710127" fill="#ff980e" stroke="none" /><path d="M 79.03789590574601 98.7389718711861 l -9.172628617863317 -0.5518025600044496 a30.18921116453815,30.18921116453815 0 0,0 0.03556007141724317,-0.5170356340438007 l 9.161804585281011 0.7091816182025753" fill="#ff6008" stroke="none" /><path d="M 79.0935383218832 98.0201363427161 l -3.1135630863341475 -0.29485766143517805 a24.127493586418627,24.127493586418627 0 0,0 0.04258802203154958,-0.41200048041608317 l 3.108042671820934 0.348262664134174" fill="#ff0801" stroke="none" /><path d="M 79.17382384314186 97.30363454192245 l -2.689800806543028 -0.34824856609519445 a23.712250991827062,23.712250991827062 0 0,0 0.05572998148885125,-0.40323438419409535 l 2.683426308498969 0.3943712584893567" fill="#ff0200" stroke="none" /><path d="M 79.22317932658666 96.9465228501225 l -3.2065386117730577 -0.4712507527091428 a24.240982434497358,24.240982434497358 0 0,0 0.06404064450325621,-0.4111868773695281 l 3.197976475131534 0.5262258120101209" fill="#ff0a01" stroke="none" /><path d="M 79.34024301695615 96.23510406497455 l -6.8038497055453435 -1.239888064508962 a27.915901476175122,27.915901476175122 0 0,0 0.08996059796089118,-0.4707118622617295 l 6.781562815302292 1.356502491804006" fill="#ff4006" stroke="none" /><path d="M 79.407916724674 95.88100663000787 l -3.524871137248792 -0.7050729472234297 a24.594696704190206,24.594696704190206 0 0,0 0.08636520174035175,-0.4132887548825568 l 3.5122482246840736 0.7654781533913957" fill="#ff0f01" stroke="none" /><path d="M 79.56144815229197 95.17655741523228 l -3.314069364060321 -0.782111346175203 a24.405107033210435,24.405107033210435 0 0,0 0.09972679048353689,-0.40691933702352834 l 3.300155047060486 0.838886507806849" fill="#ff0c01" stroke="none" /><path d="M 79.64726062577567 94.8264132398404 l -3.107849293226676 -0.7900031371880953 a24.206685545259557,24.206685545259557 0 0,0 0.10582992228128683,-0.4018534526473806 l 3.0938298901406633 0.8432370942082605" fill="#ff0901" stroke="none" /><path d="M 80.05021161711548 93.44210830539832 l -5.732141683310686 -1.8842688261051141 a27.033897354660535,27.033897354660535 0 0,0 0.14870520267521758,-0.43962050852637924 l 5.698951059063104 1.982391009105655" fill="#ff3304" stroke="none" /><path d="M 80.41425534168474 92.42381321644754 l -2.9774131898948695 -1.1517273839715534 a24.192407441156266,24.192407441156266 0 0,0 0.15315098576126362,-0.3860405297469531 l 2.9572035291674745 1.2026689309320893" fill="#ff0901" stroke="none" /><path d="M 80.5471966667186 92.08871423366112 l -2.885345992286654 -1.17344509624926 a24.11483464876004,24.11483464876004 0 0,0 0.15924306328853638,-0.38212538149079717 l 2.8647770844616387 1.2228029871813209" fill="#ff0801" stroke="none" /><line stroke="#e1ed5e" stroke-width="0.3" x1="26.387840678322718" x2="22.05771365940052" y1="57.49999999999999" y2="54.99999999999999" /><path d="M 25.521815274538284 56.99999999999999 a86.0,86.0 0 0,1 29.574782752854787,-30.34633250058573" fill="none" id="id71" stroke="none" /><text fill="#e1ed5e" style="font-size:6.75px; font-family:Arial;" text-anchor="middle"><textPath startOffset="21.40746469413373" xlink:href="#id71">November</textPath></text><line stroke="#e1ed5e" stroke-width="0.3" x1="56.869717070023135" x2="54.33264160355391" y1="26.7553504044142" y2="22.446841604673864" /><path d="M 56.362301976729285 25.89364864446614 a86.0,86.0 0 0,1 42.16139366436587,-11.88097634709845" fill="none" id="id72" stroke="none" /><text fill="#e1ed5e" style="font-size:6.75px; font-family:Arial;" text-anchor="middle"><textPath startOffset="22.145653131862474" xlink:href="#id72">December</textPath></text></svg>