<?xml version="1.0" encoding="utf-8" ?>
<svg baseProfile="full" height="200mm" version="1.1" viewBox="0,0,200,200" width="200mm" xmlns="http://www.w3.org/2000/svg" xmlns:ev="http://www.w3.org/2001/xml-events" xmlns:xlink="http://www.w3.org/1999/xlink"><defs /><rect fill="#1a1a1a" height="200" width="200" x="0" y="0" /><text alignment-baseline="middle" fill="#e1ed5e" style="dominant-baseline: central; font-size:9.0px; font-family:Arial;" text-anchor="middle" x="100.0" y="100.0">2022</text><line stroke="#e1ed5e" stroke-width="0.3" x1="100.0" x2="100.0" y1="15.0" y2="10.0" /><path d="M 100.0 14.0 a86.0,86.0 0 0,1 42.46469731375804,11.215312516191453" fill="none" id="id37" stroke="none" /><text fill="#e1ed5e" style="font-size:6.75px; font-family:Arial;" text-anchor="middle"><textPath startOffset="22.20632615414155" xlink:href="#id37">January</textPath></text><path d="M 101.80526077348638 79.07773832637324 l 0.7518223460606898 -8.713325015080121 a29.74570006680181,29.74570006680181 0 0,0 0.509749049102477,0.04840681441894185 l -0.9016965222534109 8.699092656146" fill="#ff6609" stroke="none" /><path d="M 102.88285421437855 79.19881850522331 l 2.0991540448438064 -15.146407353693803 a36.291177306800606,36.291177306800606 0 0,0 0.6180405115083586,0.09108310573146017 l -2.3595635367808208 15.108029763801374" fill="#ffbe11" stroke="none" /><path d="M 103.95276090670814 79.375362276772 l 1.6782991026147385 -8.75699588201872 a29.91637060442926,29.91637060442926 0 0,0 0.5049222213828576,0.10128264754776269 l -1.8287877334647216 8.726809278393747" fill="#ff6809" stroke="none" /><path d="M 106.0581310904928 79.89281104454417 l 4.408799464341564 -14.632988717485357 a36.28273115391461,36.28273115391461 0 0,0 0.5964442624921831,0.18531813569822142 l -4.660029099544465 14.554930446904615" fill="#ffbd11" stroke="none" /><path d="M 108.43124777332544 80.76684994638697 l 6.137586981046204 -14.000908827164542 a36.28709985368323,36.28709985368323 0 0,0 0.5699111619393434,0.2557025258505558 l -6.377680261452328 13.893185970797454" fill="#ffbd11" stroke="none" /><line stroke="#e1ed5e" stroke-width="0.3" x1="143.23703022742887" x2="145.7803849466894" y1="26.81831364943548" y2="22.513508569990506" /><path d="M 143.74570117128098 25.957352633546492 a86.0,86.0 0 0,1 28.547481713284135,27.462654790039103" fill="none" id="id38" stroke="none" /><text fill="#e1ed5e" style="font-size:6.75px; font-family:Arial;" text-anchor="middle"><textPath startOffset="19.985693538727396" xlink:href="#id38">February</textPath></text><path d="M 113.34407831869373 83.78471172551755 l 9.79914063140213 -11.907595742883357 a36.42121893657988,36.42121893657988 0 0,0 0.48066030109690405,0.40253917911840476 l -10.002658469458153 11.737155406371132" fill="#ffbf11" stroke="none" /><path d="M 114.68862486808459 84.99185889309783 l 6.109002284355488 -6.241889157725538 a29.733904577426536,29.733904577426536 0 0,0 0.3627029463798883,0.36114538466151624 l -6.215541030902698 6.135807922413903" fill="#ff6609" stroke="none" /><path d="M 116.38621287248628 86.86637796730983 l 9.291125076183555 -7.446877808717825 a32.907182466027,32.907182466027 0 0,0 0.35045509893699023,0.44504238637747046 l -9.41793425571451 7.285843028387316" fill="#ff910d" stroke="none" /><path d="M 117.45458315368197 88.32363383020206 l 12.519426987825012 -8.374958740567743 a36.0624030622505,36.0624030622505 0 0,0 0.3407096240299606,0.5189241321413484 l -12.661733247212899 8.158216544448722" fill="#ffbb11" stroke="none" /><line stroke="#e1ed5e" stroke-width="0.3" x1="172.23445277983987" x2="176.4835382374775" y1="55.19839476539836" y2="52.563006222186495" /><path d="M 173.08426987136738 54.67131705675599 a86.0,86.0 0 0,1 12.851231095245387,41.99856678651699" fill="none" id="id39" stroke="none" /><text fill="#e1ed5e" style="font-size:6.75px; font-family:Arial;" text-anchor="middle"><textPath startOffset="22.20632615414155" xlink:href="#id39">March</textPath></text><path d="M 118.56541770881063 90.18545643968196 l 12.878977239448648 -6.808426565534632 a35.567866248442634,35.567866248442634 0 0,0 0.281478278719707,0.5437264417497952 l -12.994264951328473 6.585727401524492" fill="#ffb410" stroke="none" /><path d="M 120.08093135843002 93.85539295169968 l 13.926123553027939 -4.2612842707374625 a35.563497548674015,35.563497548674015 0 0,0 0.1740818012421962,0.5869172930896301 l -13.997411251381838 4.020937590901303" fill="#ffb410" stroke="none" /><line stroke="#e1ed5e" stroke-width="0.3" x1="184.98032266829074" x2="189.97916517819016" y1="98.17113171792111" y2="98.06355123074" /><path d="M 185.9800911702706 98.14961562048488 a86.0,86.0 0 0,1 -9.607161424134198,41.387399972396054" fill="none" id="id40" stroke="none" /><text fill="#e1ed5e" style="font-size:6.75px; font-family:Arial;" text-anchor="middle"><textPath startOffset="21.466115282336823" xlink:href="#id40">April</textPath></text><line stroke="#e1ed5e" stroke-width="0.3" x1="174.80103733775053" x2="179.2010983576182" y1="140.37084112569926" y2="142.7455964860345" /><path d="M 175.68104954172406 140.8457921977663 a86.0,86.0 0 0,1 -30.038265399797805,32.042727171017184" fill="none" id="id41" stroke="none" /><text fill="#e1ed5e" style="font-size:6.75px; font-family:Arial;" text-anchor="middle"><textPath startOffset="22.206326154141568" xlink:href="#id41">May</textPath></text><line stroke="#e1ed5e" stroke-width="0.3" x1="143.8653032363475" x2="146.44561519142675" y1="172.8068346515853" y2="177.08958963109032" /><path d="M 144.38136562736335 173.6633856474863 a86.0,86.0 0 0,1 -40.68145358897372,12.25698825130547" fill="none" id="id42" stroke="none" /><text fill="#e1ed5e" style="font-size:6.75px; font-family:Arial;" text-anchor="middle"><textPath startOffset="21.466115282336833" xlink:href="#id42">June</textPath></text><path d="M 108.92500713936063 119.00905698771935 l 4.1442756954614035 8.826746201739132 a30.75122913021268,30.75122913021268 0 0,0 -0.4810839494649565,0.22084204552169182 l -3.991723750229028 -8.896775317594898" fill="#ff740a" stroke="none" /><path d="M 107.59598834532513 119.57807347666477 l 5.275928820089008 13.59829918129432 a35.58592354081961,35.58592354081961 0 0,0 -0.572983831947575,0.21665345696502022 l -5.041074767381159 -13.687100888365972" fill="#ffb410" stroke="none" /><path d="M 106.57524785965236 119.94407469862006 l 2.5320653737092673 7.680273357439164 a29.086900141693807,29.086900141693807 0 0,0 -0.4768570883931657,0.152674581052966 l -2.3994869402251613 -7.722720785151837" fill="#ff5d08" stroke="none" /><path d="M 105.18746579009965 120.34920634021253 l 1.8975690697920373 7.443716471287132 a28.681776049817046,28.681776049817046 0 0,0 -0.4794592033342434,0.11783940699509558 l -1.769156581714583 -7.475277136596258" fill="#ff5708" stroke="none" /><path d="M 104.13013068566511 120.58985236759428 l 2.8658776375348425 14.28719862672572 a35.571798078234394,35.571798078234394 0 0,0 -0.6013876345566295,0.11525737147741169 l -2.6195223884065086 -14.3344131965516" fill="#ffb410" stroke="none" /><path d="M 102.70371172650421 120.8252237178851 l 1.8767299018638264 14.455431650212168 a35.5767492713055,35.5767492713055 0 0,0 -0.6079771281165873,0.07361756329787321 l -1.6276253506958587 -14.485594742235392" fill="#ffb410" stroke="none" /><path d="M 101.62511606390274 120.93702456842531 l 0.9020492345651587 11.62146347914654 a32.656419099308174,32.656419099308174 0 0,0 -0.5608152774676528,0.038677105008085626 l -0.7018711963185755 -11.63526892867091" fill="#ff8e0d" stroke="none" /><line stroke="#e1ed5e" stroke-width="0.3" x1="102.19456741930631" x2="102.32365962044197" y1="184.97166512339345" y2="189.96999836594603" /><path d="M 102.22038585953345 185.97133177190398 a86.0,86.0 0 0,1 -42.740103519485714,-10.115201625700543" fill="none" id="id43" stroke="none" /><text fill="#e1ed5e" style="font-size:6.75px; font-family:Arial;" text-anchor="middle"><textPath startOffset="22.20632615414155" xlink:href="#id43">July</textPath></text><path d="M 100.18074693466247 120.99922214144158 l 0.1282370178616523 14.898607436201807 a35.899159314229706,35.899159314229706 0 0,0 -0.6179679050482053,0.0 l 0.12823701786164204 -14.898607436201807" fill="#ffb811" stroke="none" /><path d="M 99.45781275523022 120.99299961872073 l -0.20914832580829035 8.098033965763705 a29.100734357627772,29.100734357627772 0 0,0 -0.500643003558733,-0.017243157312412407 l 0.3485116810416664 -8.093234010025197" fill="#ff5d08" stroke="none" /><path d="M 98.01472825383883 120.90594882070398 l -0.6078848735977486 6.40134534775316 a27.430143566107212,27.430143566107212 0 0,0 -0.469665976038141,-0.0486827987646651 l 0.7179834462414828 -6.389933180532734" fill="#ff4606" stroke="none" /><path d="M 95.16358092515715 120.4354850818985 l -1.9032410163924958 8.041828633100815 a29.263978105648565,29.263978105648565 0 0,0 -0.4891915899683111,-0.12023139084195884 l 2.0413858911040172 -8.007875983944826" fill="#ff5f08" stroke="none" /><path d="M 92.40401165467489 119.57807347666478 l -5.416515609698007 13.960650776858254 a35.97459219690123,35.97459219690123 0 0,0 -0.5753860627108643,-0.22895798896765443 l 5.656022748450729 -13.865345943484533" fill="#ffb911" stroke="none" /><path d="M 90.42595943632237 118.69057910512821 l -5.2267366144887015 10.203710074656883 a32.4644875561401,32.4644875561401 0 0,0 -0.4951747956689071,-0.25905204968782897 l 5.401602312684104 -10.112228606024338" fill="#ff8b0c" stroke="none" /><line stroke="#e1ed5e" stroke-width="0.3" x1="58.666819895761336" x2="56.23545636021788" y1="174.27360380694188" y2="178.64263932499728" /><path d="M 58.180547188652646 175.14741091055294 a86.0,86.0 0 0,1 -31.652253787137756,-30.449443065178592" fill="none" id="id44" stroke="none" /><text fill="#e1ed5e" style="font-size:6.75px; font-family:Arial;" text-anchor="middle"><textPath startOffset="22.20632615414155" xlink:href="#id44">August</textPath></text><path d="M 88.24862548938628 117.40417183066458 l -4.509696549595422 6.679008790199378 a29.058940463174636,29.058940463174636 0 0,0 -0.4121431122433279,-0.28347579072249895 l 4.62399654646164 -6.600392210111779" fill="#ff5c08" stroke="none" /><path d="M 86.24171649860922 115.8653595955263 l -5.3070568003668095 6.119830611368876 a29.10044311097653,29.10044311097653 0 0,0 -0.3756141732874761,-0.3314358360151242 l 5.4116133265608735 -6.027571633581463" fill="#ff5d08" stroke="none" /><path d="M 82.85270091963577 112.12312394758628 l -6.601596986124696 4.66732271594004 a29.084861415135116,29.084861415135116 0 0,0 -0.2855012832110004,-0.41128589215734207 l 6.68095917649783 -4.552995561595686" fill="#ff5d08" stroke="none" /><line stroke="#e1ed5e" stroke-width="0.3" x1="26.63291911575756" x2="22.317208475507996" y1="142.92168965132927" y2="145.44649492493687" /><path d="M 25.769776987707644 143.4266507060508 a86.0,86.0 0 0,1 -11.730757126820373,-40.83630448921669" fill="none" id="id45" stroke="none" /><text fill="#e1ed5e" style="font-size:6.75px; font-family:Arial;" text-anchor="middle"><textPath startOffset="21.46611528233685" xlink:href="#id45">September</textPath></text><path d="M 80.45479744820244 107.68017299344265 l -5.885205723256648 2.3125571575339277 a27.323256045101623,27.323256045101623 0 0,0 -0.1682406336553749,-0.4392232056290364 l 5.924140636505532 -2.2109103850717333" fill="#ff4406" stroke="none" /><path d="M 79.04373962182676 101.35467743843564 l -1.889741483631924 0.12215872995252496 a22.89368572637146,22.89368572637146 0 0,0 -0.022036425245904677,-0.39347517599881626 l 1.8915642597653601 -0.08961183761827111" fill="#ff0400" stroke="none" /><path d="M 79.0095281055655 100.63252640178507 l -4.879661366517887 0.14704360443233172 a25.88187636810803,25.88187636810803 0 0,0 -0.00958607676121577,-0.445427319328335 l 4.88146950596411 -0.06302646931386788" fill="#ff3004" stroke="none" /><line stroke="#e1ed5e" stroke-width="0.3" x1="15.007084014347285" x2="10.007500721073583" y1="101.09737516637583" y2="101.16192664675087" /><path d="M 14.007167355692545 101.11028546245083 a86.0,86.0 0 0,1 10.666146001902534,-42.60595125391555" fill="none" id="id46" stroke="none" /><text fill="#e1ed5e" style="font-size:6.75px; font-family:Arial;" text-anchor="middle"><textPath startOffset="22.20632615414155" xlink:href="#id46">October</textPath></text><path d="M 79.00175016825051 100.2711162175752 l -8.753999082121947 0.11302613974109357 a29.754728712990293,29.754728712990293 0 0,0 -0.0022042624813762624,-0.5121929718269973 l 8.754647641892827 0.03767631028957911" fill="#ff6609" stroke="none" /><path d="M 79.00019446554 99.90962569577889 l -1.6153845920843166 -0.006951933831938333 a22.61539955111032,22.61539955111032 0 0,0 0.0050259956540500365,-0.38926890224770755 l 1.6150255893125511 0.03475709414011783" fill="#ff0000" stroke="none" /><path d="M 79.01574976396665 99.18683210126434 l -9.767780131966921 -0.37851460766438333 a30.775111355614474,30.775111355614474 0 0,0 0.0250691005479448,-0.5291690906167855 l 9.759817423185478 0.546594804904178" fill="#ff740a" stroke="none" /><path d="M 79.08570108090925 98.10471618934814 l -7.899151489360465 -0.7158324547998876 a28.93152005325653,28.93152005325653 0 0,0 0.04921509784212209,-0.49558931890818275 l 7.885659265836114 0.8516973044125006" fill="#ff5b08" stroke="none" /><path d="M 79.12142395522702 97.74499172005258 l -1.7131973358175494 -0.1850353285189496 a22.72316081206963,22.72316081206963 0 0,0 0.04534855467983429,-0.38851872260117715 l 1.7097584281341263 0.21449778944498848" fill="#ff0200" stroke="none" /><path d="M 79.16333360222342 97.38593545837743 l -17.902108487193622 -2.2459095002666443 a39.04243879775231,39.04243879775231 0 0,0 0.08939603161598028,-0.6661042715379888 l 17.860796456519807 2.5537321138692928" fill="#ffe115" stroke="none" /><path d="M 79.3925641242962 95.95851677861259 l -14.315404662168076 -2.807504441527103 a35.58810789070392,35.58810789070392 0 0,0 0.12306825962266932,-0.6001245407229315 l 14.264957106630412 3.053504638413437" fill="#ffb410" stroke="none" /><path d="M 80.2630227832202 92.82701384747504 l -13.691971074815614 -4.97605676095767 a35.56815749509388,35.56815749509388 0 0,0 0.21407866203958617,-0.5736243810516529 l 13.6042878242744 5.211004279038665" fill="#ffb410" stroke="none" /><path d="M 81.26839172434947 90.50648371742162 l -13.0079037467851 -6.5926397885890005 a35.58315669763281,35.58315669763281 0 0,0 0.281599284834861,-0.5439601870488081 l 12.892495028790124 6.815572697898144" fill="#ffb410" stroke="none" /><line stroke="#e1ed5e" stroke-width="0.3" x1="26.266209847984243" x2="21.928928074336255" y1="57.711370442889674" y2="55.22380399835377" /><path d="M 25.398753493254645 57.213857153982495 a86.0,86.0 0 0,1 29.58750427330803,-30.492523968695096" fill="none" id="id47" stroke="none" /><text fill="#e1ed5e" style="font-size:6.75px; font-family:Arial;" text-anchor="middle"><textPath startOffset="21.46611528233685" xlink:href="#id47">November</textPath></text><path d="M 82.7489923806493 88.02491185347247 l -11.974816628188364 -8.312528046199798 a35.57718614128237,35.57718614128237 0 0,0 0.353548084313047,-0.5000686924604663 l 11.829955924071438 8.51742323899205" fill="#ffb410" stroke="none" /><path d="M 86.10567301691215 84.25364557470407 l -9.656043871348126 -10.943134513066111 a35.59422407037998,35.59422407037998 0 0,0 0.4629049202846217,-0.40142658532999076 l 9.466245152416732 11.107726091815781" fill="#ffb410" stroke="none" /><path d="M 88.09926311788651 82.69761687909137 l -35.70221064634046 -51.907149362725875 a84.0,84.0 0 0,0 1.198381222373842,-0.8091523508053382 l 34.80342472956008 52.51401362582988" fill="#4dd2ff" stroke="none" /><line stroke="#e1ed5e" stroke-width="0.3" x1="56.762969772571076" x2="54.21961505331055" y1="26.818313649435495" y2="22.513508569990535" /><path d="M 56.25429882871897 25.957352633546506 a86.0,86.0 0 0,1 42.265352541879196,-11.944610805530505" fill="none" id="id48" stroke="none" /><text fill="#e1ed5e" style="font-size:6.75px; font-family:Arial;" text-anchor="middle"><textPath startOffset="22.20632615414155" xlink:href="#id48">December</textPath></text><path d="M 90.26544431104013 81.39251694778311 l -3.828744177647385 -7.318597239897252 a29.259609405879942,29.259609405879942 0 0,0 0.44828440302814454,-0.22962868269169254 l 3.702199287030477 7.383418447901449" fill="#ff5f08" stroke="none" /><path d="M 90.91171255644093 81.06846463323043 l -6.367324057794681 -13.26357923210852 a35.71276145743522,35.71276145743522 0 0,0 0.5564758896920169,-0.26127289173744417 l 6.138069956803055 13.371217106485974" fill="#ffb610" stroke="none" /><path d="M 92.57280143429618 80.3572730644239 l -5.296001188893273 -14.006344960841792 a35.97415532692436,35.97415532692436 0 0,0 0.581098538204553,-0.2140234957130338 l 5.05412032491615 14.095431724361148" fill="#ffb911" stroke="none" /></svg>