<?xml version="1.0" encoding="utf-8" ?>
<svg baseProfile="full" height="200mm" version="1.1" viewBox="0,0,200,200" width="200mm" xmlns="http://www.w3.org/2000/svg" xmlns:ev="http://www.w3.org/2001/xml-events" xmlns:xlink="http://www.w3.org/1999/xlink"><defs /><rect fill="#1a1a1a" height="200" width="200" x="0" y="0" /><text alignment-baseline="middle" fill="#e1ed5e" style="dominant-baseline: central; font-size:9.0px; font-family:Arial;" text-anchor="middle" x="100.0" y="100.0">2019</text><line stroke="#e1ed5e" stroke-width="0.3" x1="100.0" x2="100.0" y1="15.0" y2="10.0" /><path d="M 100.0 14.0 a86.0,86.0 0 0,1 42.46469731375804,11.215312516191453" fill="none" id="id1" stroke="none" /><text fill="#e1ed5e" style="font-size:6.75px; font-family:Arial;" text-anchor="middle"><textPath startOffset="22.20632615414155" xlink:href="#id1">January</textPath></text><line stroke="#e1ed5e" stroke-width="0.3" x1="143.23703022742887" x2="145.7803849466894" y1="26.81831364943548" y2="22.513508569990506" /><path d="M 143.74570117128098 25.957352633546492 a86.0,86.0 0 0,1 28.547481713284135,27.462654790039103" fill="none" id="id2" stroke="none" /><text fill="#e1ed5e" style="font-size:6.75px; font-family:Arial;" text-anchor="middle"><textPath startOffset="19.985693538727396" xlink:href="#id2">February</textPath></text><line stroke="#e1ed5e" stroke-width="0.3" x1="172.23445277983987" x2="176.4835382374775" y1="55.19839476539836" y2="52.563006222186495" /><path d="M 173.08426987136738 54.67131705675599 a86.0,86.0 0 0,1 12.851231095245387,41.99856678651699" fill="none" id="id3" stroke="none" /><text fill="#e1ed5e" style="font-size:6.75px; font-family:Arial;" text-anchor="middle"><textPath startOffset="22.20632615414155" xlink:href="#id3">March</textPath></text><line stroke="#e1ed5e" stroke-width="0.3" x1="184.98032266829074" x2="189.97916517819016" y1="98.17113171792111" y2="98.06355123074" /><path d="M 185.9800911702706 98.14961562048488 a86.0,86.0 0 0,1 -9.607161424134198,41.387399972396054" fill="none" id="id4" stroke="none" /><text fill="#e1ed5e" style="font-size:6.75px; font-family:Arial;" text-anchor="middle"><textPath startOffset="21.466115282336823" xlink:href="#id4">April</textPath></text><line stroke="#e1ed5e" stroke-width="0.3" x1="174.80103733775053" x2="179.2010983576182" y1="140.37084112569926" y2="142.7455964860345" /><path d="M 175.68104954172406 140.8457921977663 a86.0,86.0 0 0,1 -30.038265399797805,32.042727171017184" fill="none" id="id5" stroke="none" /><text fill="#e1ed5e" style="font-size:6.75px; font-family:Arial;" text-anchor="middle"><textPath startOffset="22.206326154141568" xlink:href="#id5">May</textPath></text><line stroke="#e1ed5e" stroke-width="0.3" x1="143.8653032363475" x2="146.44561519142675" y1="172.8068346515853" y2="177.08958963109032" /><path d="M 144.38136562736335 173.6633856474863 a86.0,86.0 0 0,1 -40.68145358897372,12.25698825130547" fill="none" id="id6" stroke="none" /><text fill="#e1ed5e" style="font-size:6.75px; font-family:Arial;" text-anchor="middle"><textPath startOffset="21.466115282336833" xlink:href="#id6">June</textPath></text><line stroke="#e1ed5e" stroke-width="0.3" x1="102.19456741930631" x2="102.32365962044197" y1="184.97166512339345" y2="189.96999836594603" /><path d="M 102.22038585953345 185.97133177190398 a86.0,86.0 0 0,1 -42.740103519485714,-10.115201625700543" fill="none" id="id7" stroke="none" /><text fill="#e1ed5e" style="font-size:6.75px; font-family:Arial;" text-anchor="middle"><textPath startOffset="22.20632615414155" xlink:href="#id7">July</textPath></text><path d="M 100.54218724476979 120.99299961872073 l 0.4829426025303954 18.69910066786839 a39.70533611952522,39.70533611952522 0 0,0 -0.6833861428550976,0.01176511219725468 l -0.1609967697826299 -18.704643257344802" fill="red" stroke="none" /><path d="M 95.86986931433489 120.58985236759428 l -5.651287834928771 28.17324464134404 a49.734452627712166,49.734452627712166 0 0,0 -0.8379273333723922,-0.17559581972304836 l 6.13540662973055 -28.071792840894453" fill="red" stroke="none" /><path d="M 93.42475214034765 119.94407469862007 l -4.525504213176963 13.72678201689773 a35.453537038486786,35.453537038486786 0 0,0 -0.5779437525097685,-0.1960698997879343 l 4.761117698623957 -13.646849130211672" fill="red" stroke="none" /><path d="M 93.08242187328487 119.8279376855182 l -5.60106499243847 16.054400197333816 a38.003402446148,38.003402446148 0 0,0 -0.6158006896162173,-0.2208042181572667 l 5.876585242684414 -15.955608438136592" fill="red" stroke="none" /><path d="M 92.40401165467489 119.57807347666478 l -6.867938636464937 17.701581564522584 a39.987221255352075,39.987221255352075 0 0,0 -0.6395649927297046,-0.2544961097243149 l 7.1716247052365 -17.580738610392203" fill="red" stroke="none" /><path d="M 90.42595943632237 118.69057910512821 l -16.39366418685209 32.00394601102125 a56.95837573845125,56.95837573845125 0 0,0 -0.8687755203019081,-0.4545022913551154 l 16.942130609680493 -31.717014300721416" fill="red" stroke="none" /><line stroke="#e1ed5e" stroke-width="0.3" x1="58.666819895761336" x2="56.23545636021788" y1="174.27360380694188" y2="178.64263932499728" /><path d="M 58.180547188652646 175.14741091055294 a86.0,86.0 0 0,1 -31.652253787137756,-30.449443065178592" fill="none" id="id8" stroke="none" /><text fill="#e1ed5e" style="font-size:6.75px; font-family:Arial;" text-anchor="middle"><textPath startOffset="22.20632615414155" xlink:href="#id8">August</textPath></text><path d="M 89.4739219176387 118.17145234162733 l -17.68877068232743 30.53660165931259 a56.289894433838974,56.289894433838974 0 0,0 -0.8342487468681584,-0.4928888644727825 l 18.211787300223968 -30.22759422254606" fill="red" stroke="none" /><path d="M 89.1626897886671 117.98757091392108 l -10.297262263948692 17.09120912662697 a40.95352198341533,40.95352198341533 0 0,0 -0.6006922193772082,-0.36899422301236834 l 10.58993368325821 -16.911426436786222" fill="red" stroke="none" /><path d="M 88.8546689885994 117.79835938074946 l -24.75306893215319 39.52902037456512 a67.63965987582577,67.63965987582577 0 0,0 -0.9814778698819355,-0.6264256135768376 l 25.42982860408205 -39.09708033216448" fill="red" stroke="none" /><path d="M 87.65650970185807 116.9893568818739 l -5.100868925965758 7.020743768392483 a29.678116550341148,29.678116550341148 0 0,0 -0.41070984377136616,-0.3038333237364296 l 5.220963740155688 -6.931900495916287" fill="red" stroke="none" /><path d="M 84.67929136418377 114.36230785411682 l -5.877811268242714 5.510119469640391 a29.056679333000112,29.056679333000112 0 0,0 -0.3389303797302211,-0.3678419876341808 l 5.9717880559686645 -5.408126227204866" fill="red" stroke="none" /><path d="M 83.95833913139862 113.55231037782056 l -14.530784627401525 12.275892435131526 a40.02212493300493,40.02212493300493 0 0,0 -0.44006041618054625,-0.530081119833428 l 14.739941043475607 -12.023950058184337" fill="red" stroke="none" /><path d="M 83.50135304334701 112.99209946851258 l -27.25604654408822 21.46317020720348 a55.692358647934135,55.692358647934135 0 0,0 -0.5866080983794943,-0.758270042722927 l 27.621461459685783 -20.9908221703673" fill="red" stroke="none" /><path d="M 83.06392112726016 112.41649034213515 l -13.555023267073118 9.937708530274625 a37.807638341051565,37.807638341051565 0 0,0 -0.38027320096118356,-0.528166216501029 l 13.724076260409909 -9.702908708322457" fill="red" stroke="none" /><line stroke="#e1ed5e" stroke-width="0.3" x1="26.63291911575756" x2="22.317208475507996" y1="142.92168965132927" y2="145.44649492493687" /><path d="M 25.769776987707644 143.4266507060508 a86.0,86.0 0 0,1 -11.730757126820373,-40.83630448921669" fill="none" id="id9" stroke="none" /><text fill="#e1ed5e" style="font-size:6.75px; font-family:Arial;" text-anchor="middle"><textPath startOffset="21.46611528233685" xlink:href="#id9">September</textPath></text><path d="M 81.18737489456691 109.33194174019688 l -34.01186036438099 16.871473152593186 a58.966475366892084,58.966475366892084 0 0,0 -0.44322219550344333,-0.9131690008149663 l 34.29723581649915 -16.283515195812935" fill="red" stroke="none" /><path d="M 80.87730276802145 108.67885076344099 l -20.395647455108488 9.256580195738795 a43.39791758251684,43.39791758251684 0 0,0 -0.30287389170547546,-0.6829006694235987 l 20.551962431545245 -8.904131189822502" fill="red" stroke="none" /><path d="M 80.32549172779594 107.34259656027581 l -35.569727114472826 13.27474884491327 a58.96609597909152,58.96609597909152 0 0,0 -0.3467086798407234,-0.9539933814688134 l 35.79296005531877 -12.66050766643834" fill="red" stroke="none" /><path d="M 80.0844068197444 106.66101706037122 l -35.996951646089215 12.039626782177567 a58.95699067187772,58.95699067187772 0 0,0 -0.31361679594340225,-0.965213249856664 l 36.198860693048864 -11.418214632343101" fill="red" stroke="none" /><path d="M 79.76711848015287 105.62410040840567 l -17.536252447918468 4.874522912492616 a39.20112973256171,39.20112973256171 0 0,0 -0.17512063760891702,-0.6516890390190121 l 17.61756116186916 -4.571942940298065" fill="red" stroke="none" /><path d="M 79.18660465613746 102.79330883721812 l -17.385878834029988 2.3333112251778796 a38.541753735163226,38.541753735163226 0 0,0 -0.08258670233628568,-0.6582972754014287 l 17.42346704561312 -2.0336961954890422" fill="red" stroke="none" /><path d="M 79.1416061653843 102.43462659150553 l -37.71046170070812 4.401628119713106 a58.966475366892084,58.966475366892084 0 0,0 -0.10899727915893657,-1.0091794348738765 l 37.78064128136811 -3.7518523629544474" fill="red" stroke="none" /><path d="M 79.04373962182676 101.35467743843564 l -19.409941593576644 1.2547186131337755 a40.450453759853545,40.450453759853545 0 0,0 -0.03893577517818125,-0.6952244213807945 l 19.428663719642355 -0.9204224754175434" fill="red" stroke="none" /><path d="M 79.0095281055655 100.63252640178507 l -37.94811159679015 1.1435275301848011 a58.965337203490364,58.965337203490364 0 0,0 -0.021839461739340277,-1.0147939705100297 l 37.9621731212145 -0.49014374388464255" fill="red" stroke="none" /><line stroke="#e1ed5e" stroke-width="0.3" x1="15.007084014347285" x2="10.007500721073583" y1="101.09737516637583" y2="101.16192664675087" /><path d="M 14.007167355692545 101.11028546245083 a86.0,86.0 0 0,1 10.666146001902534,-42.60595125391555" fill="none" id="id10" stroke="none" /><text fill="#e1ed5e" style="font-size:6.75px; font-family:Arial;" text-anchor="middle"><textPath startOffset="22.20632615414155" xlink:href="#id10">October</textPath></text><path d="M 79.16333360222342 97.38593545837743 l -18.84142480970112 -2.3637514546925296 a39.989118194354944,39.989118194354944 0 0,0 0.09156365699684553,-0.6822555983831325 l 18.79794515364644 2.6877253951403213" fill="red" stroke="none" /><path d="M 79.32604984820605 96.31383870115002 l -35.481128333704135 -6.326278294323971 a57.040702891175926,57.040702891175926 0 0,0 0.18066766954663,-0.9651339149608961 l 35.366974940247644 6.93609028674744" fill="red" stroke="none" /><path d="M 79.91906864156998 93.8553929516997 l -36.309219394698246 -11.110335543141261 a58.971028020498984,58.971028020498984 0 0,0 0.30537028160861224,-0.9681072426538225 l 36.11259362932143 11.733692952221498" fill="red" stroke="none" /><path d="M 80.38941819471856 92.48833698450439 l -16.65429755149141 -6.379284011497581 a38.834261729406165,38.834261729406165 0 0,0 0.2444828517242899,-0.6221821906189084 l 16.54202114988543 6.665015207012253" fill="red" stroke="none" /><line stroke="#e1ed5e" stroke-width="0.3" x1="26.266209847984243" x2="21.928928074336255" y1="57.711370442889674" y2="55.22380399835377" /><path d="M 25.398753493254645 57.213857153982495 a86.0,86.0 0 0,1 29.58750427330803,-30.492523968695096" fill="none" id="id11" stroke="none" /><text fill="#e1ed5e" style="font-size:6.75px; font-family:Arial;" text-anchor="middle"><textPath startOffset="21.46611528233685" xlink:href="#id11">November</textPath></text><path d="M 81.78341655067845 89.55222093294921 l -32.92932378831752 -18.885994770909395 a58.96078454988346,58.96078454988346 0 0,0 0.512510514534322,-0.8760466020633435 l 32.59935359931287 19.450020785326632" fill="red" stroke="none" /><path d="M 83.84228863543731 86.58626213691792 l -13.026623882551918 -10.814385407623302 a37.93055998843771,37.93055998843771 0 0,0 0.42137128903773646,-0.49877069887442943 l 12.838541980027058 11.037015056126847" fill="red" stroke="none" /><path d="M 85.31137513191541 84.99185889309783 l -28.225915307129817 -28.839903231602833 a61.35396279590743,61.35396279590743 0 0,0 0.7611302561482666,-0.732206703371913 l 27.725301807369124 29.32149302173706" fill="red" stroke="none" /><line stroke="#e1ed5e" stroke-width="0.3" x1="56.762969772571076" x2="54.21961505331055" y1="26.818313649435495" y2="22.513508569990535" /><path d="M 56.25429882871897 25.957352633546506 a86.0,86.0 0 0,1 42.265352541879196,-11.944610805530505" fill="none" id="id12" stroke="none" /><text fill="#e1ed5e" style="font-size:6.75px; font-family:Arial;" text-anchor="middle"><textPath startOffset="22.20632615414155" xlink:href="#id12">December</textPath></text><path d="M 91.23893434514133 80.91482961587045 l -15.839370636805528 -34.50460244104728 a58.966475366892084,58.966475366892084 0 0,0 0.926104666047118,-0.41551616835228233 l 15.243083852291637 34.7721389399161" fill="red" stroke="none" /><path d="M 93.59665428221793 80.00007090966166 l -19.21003715334623 -59.99978727101503 a84.0,84.0 0 0,0 1.380858509157085,-0.42903946046989905 l 18.17439327147842 60.321566866367455" fill="red" stroke="none" /></svg>