<?xml version="1.0" encoding="utf-8" ?>
<svg baseProfile="full" height="200mm" version="1.1" viewBox="0,0,200,200" width="200mm" xmlns="http://www.w3.org/2000/svg" xmlns:ev="http://www.w3.org/2001/xml-events" xmlns:xlink="http://www.w3.org/1999/xlink"><defs /><rect fill="#1a1a1a" height="200" width="200" x="0" y="0" /><text alignment-baseline="middle" fill="#e1ed5e" style="dominant-baseline: central; font-size:9.0px; font-family:Arial;" text-anchor="middle" x="100.0" y="100.0">2023</text><line stroke="#e1ed5e" stroke-width="0.3" x1="100.0" x2="100.0" y1="15.0" y2="10.0" /><path d="M 100.0 14.0 a86.0,86.0 0 0,1 42.46469731375804,11.215312516191453" fill="none" id="id49" stroke="none" /><text fill="#e1ed5e" style="font-size:6.75px; font-family:Arial;" text-anchor="middle"><textPath startOffset="22.20632615414155" xlink:href="#id49">January</textPath></text><path d="M 101.44485096284872 79.0497635885617 l 0.5638377895048835 -8.17560792882063 a29.19502764233706,29.19502764233706 0 0,0 0.5010559230540912,0.038891583033090954 l -0.7044839019213158 8.164691083599074" fill="#ff4206" stroke="none" /><path d="M 102.52436894288641 79.15227682838746 l 1.8039990104302406 -14.898484659817413 a36.00730680663416,36.00730680663416 0 0,0 0.6146709122036919,0.07980192557734038 l -2.0601846511417783 14.865224411075936" fill="#ffa30f" stroke="none" /><line stroke="#e1ed5e" stroke-width="0.3" x1="143.23703022742887" x2="145.7803849466894" y1="26.81831364943548" y2="22.513508569990506" /><path d="M 143.74570117128098 25.957352633546492 a86.0,86.0 0 0,1 28.547481713284135,27.462654790039103" fill="none" id="id50" stroke="none" /><text fill="#e1ed5e" style="font-size:6.75px; font-family:Arial;" text-anchor="middle"><textPath startOffset="19.985693538727396" xlink:href="#id50">February</textPath></text><path d="M 115.68641384162765 86.03803664274999 l 11.197316194852322 -9.966364523495733 a35.99027390619319,35.99027390619319 0 0,0 0.4079037153207542,0.4663044598985779 l -11.367211773750924 9.772144507394206" fill="#ffa20f" stroke="none" /><path d="M 117.2510076193507 88.02491185347247 l 12.354325599618257 -8.575970825053673 a36.03917007728667,36.03917007728667 0 0,0 0.34936634787328713,0.5126520059610045 l -12.500116413160276 8.362040795822262" fill="#ffa30f" stroke="none" /><line stroke="#e1ed5e" stroke-width="0.3" x1="172.23445277983987" x2="176.4835382374775" y1="55.19839476539836" y2="52.563006222186495" /><path d="M 173.08426987136738 54.67131705675599 a86.0,86.0 0 0,1 12.851231095245387,41.99856678651699" fill="none" id="id51" stroke="none" /><text fill="#e1ed5e" style="font-size:6.75px; font-family:Arial;" text-anchor="middle"><textPath startOffset="22.20632615414155" xlink:href="#id51">March</textPath></text><path d="M 117.84615892207809 88.93136811851018 l 9.878086800128274 -6.126635258680745 a32.62377986817449,32.62377986817449 0 0,0 0.2918806113056153,0.4797749801471578 l -9.982083209720113 5.955692505326505" fill="#ff730a" stroke="none" /><path d="M 118.3937258080291 89.86733742301442 l 9.222756759276965 -5.0805955925783115 a31.529562850190654,31.529562850190654 0 0,0 0.2577795512647672,0.47762635856476626 l -9.308844409760198 4.921088250681087" fill="#ff6409" stroke="none" /><path d="M 118.56541770881063 90.18545643968196 l 10.995366604316114 -5.812662348475659 a33.437247699579544,33.437247699579544 0 0,0 0.26461691184565334,0.511155647814408 l -11.093792949321884 5.622533978400907" fill="#ff7f0b" stroke="none" /><path d="M 119.04729006885535 91.15688171328212 l 8.921308647103462 -4.141911387575987 a30.835912663266924,30.835912663266924 0 0,0 0.21937209077203176,0.48335732314360974 l -8.991283054838842 3.9877320555903144" fill="#ff5a08" stroke="none" /><path d="M 119.34039704204932 91.81776055985345 l 11.305999468832688 -4.783169371498924 a33.27616932213345,33.27616932213345 0 0,0 0.2186376052360591,0.5294483032584026 l -11.386658760954944 4.587846497787218" fill="#ff7d0b" stroke="none" /><path d="M 119.61058180528143 92.48833698450437 l 11.211231199692019 -4.294364725997926 a33.00555177461007,33.00555177461007 0 0,0 0.1986547761087025,0.5322960350305171 l -11.283490564302346 4.100745553938075" fill="#ff790b" stroke="none" /><path d="M 119.7369772167798 92.82701384747503 l 11.71116524519045 -4.256174854489116 a33.46059452001156,33.46059452001156 0 0,0 0.19207483731712205,0.5430214301712645 l -11.782693163317383 4.053955797891237" fill="#ff7f0b" stroke="none" /><path d="M 120.08093135843002 93.85539295169968 l 9.408671648637254 -2.878979520194912 a30.83928987628539,30.83928987628539 0 0,0 0.15095700650213897,0.5089519811774171 l -9.456834552251095 2.7165981522709655" fill="#ff5a08" stroke="none" /><path d="M 120.37134235888165 94.90015583598534 l 17.97802347379512 -4.5006910432379446 a39.53282352721815,39.53282352721815 0 0,0 0.1595755594374037,0.6615437153174736 l -18.052831833493343 4.190562096261065" fill="#ffd213" stroke="none" /><path d="M 120.78858239683441 97.02765380044208 l 9.347187224591218 -1.3364584411393368 a30.442247093592385,30.442247093592385 0 0,0 0.06970404942523237,0.5193761314271158 l -9.368807273074285 1.1753639676475565" fill="#ff5407" stroke="none" /><path d="M 120.96714384426684 98.82574320788733 l 6.0093640829771084 -0.336552114256768 a27.018780940305604,27.018780940305604 0 0,0 0.0220092310389622,0.46458008143478746 l -6.0142669222495675 0.23306092619898083" fill="#ff2203" stroke="none" /><line stroke="#e1ed5e" stroke-width="0.3" x1="184.98032266829074" x2="189.97916517819016" y1="98.17113171792111" y2="98.06355123074" /><path d="M 185.9800911702706 98.14961562048488 a86.0,86.0 0 0,1 -9.607161424134198,41.387399972396054" fill="none" id="id52" stroke="none" /><text fill="#e1ed5e" style="font-size:6.75px; font-family:Arial;" text-anchor="middle"><textPath startOffset="21.466115282336823" xlink:href="#id52">April</textPath></text><path d="M 120.99513854157772 99.54816195383933 l 15.619664335492212 -0.33615203829485707 a36.62328109413311,36.62328109413311 0 0,0 0.008139075818677231,0.6303803917328031 l -15.623136418428604 0.06723538850159122" fill="#ffab0f" stroke="none" /><path d="M 120.99980553446 99.90962569577887 l 4.980608903318592 -0.021434439642612532 a25.980655025498073,25.980655025498073 0 0,0 -0.0019246750211264054,0.44722669246558855 l -4.980239931007962 -0.06430173102666073" fill="#ff1202" stroke="none" /><path d="M 120.99824983174949 100.27111621757518 l 7.774283736641264 0.10037667033790351 a28.77493170990929,28.77493170990929 0 0,0 -0.0106576007182317,0.495216827138342 l -7.771404073238025 -0.23418331326636035" fill="#ff3c05" stroke="none" /><path d="M 120.9904718944345 100.63252640178507 l 6.061548408399066 0.1826585616222981 a27.064299898380618,27.064299898380618 0 0,0 -0.01804011783108223,0.4655352817586476 l -6.05750615771678 -0.2869710903949519" fill="#ff2203" stroke="none" /><path d="M 120.9764740272857 100.99374915477107 l 6.500452128571613 0.3079554171017982 a27.50774265124041,27.50774265124041 0 0,0 -0.026477707515634195,0.47277725440947965 l -6.494188070168449 -0.41980438784670115" fill="#ff2904" stroke="none" /><path d="M 120.95626037817324 101.35467743843564 l 8.245215765080745 0.5329962297864141 a29.262425067357803,29.262425067357803 0 0,0 -0.036819712957454453,0.5023757299063236 l -8.234819493458954 -0.6748450961895079" fill="#ff4306" stroke="none" /><path d="M 120.92983693683757 101.71520430193887 l 5.985500573706615 0.4905129631091323 a27.005565758928988,27.005565758928988 0 0,0 -0.041955594554811834,0.46297648980904205 l -5.976170382874727 -0.5934708414667449" fill="#ff2103" stroke="none" /><path d="M 120.89721153311464 102.0752229133903 l 11.186689596892155 1.110907765836039 a32.241714291041646,32.241714291041646 0 0,0 -0.0595975783066134,0.5517995573780977 l -11.165909717084489 -1.303303645098928" fill="#ff6e0a" stroke="none" /><path d="M 120.8583938346157 102.4346265915055 l 8.63549522398867 1.007949436080297 a29.69412099232727,29.69412099232727 0 0,0 -0.06362812518553389,0.5071787619995122 l -8.616865589556289 -1.156445952367204" fill="#ff4906" stroke="none" /><path d="M 120.81339534386255 102.79330883721812 l 6.455736489659129 0.8664067293870829 a27.513616065185573,27.513616065185573 0 0,0 -0.06703620361619538,0.46885105195805765 l -6.439866235026332 -0.9774032533255498" fill="#ff2904" stroke="none" /><path d="M 120.76222939487914 103.15116336523771 l 6.116130849451291 0.9282686894185166 a27.186173237742743,27.186173237742743 0 0,0 -0.07420303598178596,0.4620623758909103 l -6.099246059108216 -1.0334102950026318" fill="#ff2403" stroke="none" /><path d="M 120.70491114924044 103.5080841355445 l 8.058011764774825 1.3652887970530858 a29.17285550469407,29.17285550469407 0 0,0 -0.0881486413760772,0.49438439341380164 l -8.03331668105956 -1.5037919412001057" fill="#ff4106" stroke="none" /><path d="M 120.64145759157962 103.86396538481128 l 6.325912147517795 1.1841753644053292 a27.435793330412164,27.435793330412164 0 0,0 -0.0908909514696477,0.46345100337926404 l -6.304591263072483 -1.2928900948525381" fill="#ff2803" stroke="none" /><path d="M 120.5718875245553 104.21870165774334 l 3.9959284802225303 0.819449847935284 a25.07908598491558,25.07908598491558 0 0,0 -0.0903634832838564,0.4221481103495854 l -3.981230958214231 -0.8881117777010384" fill="#ff0400" stroke="none" /><path d="M 120.41448212921028 104.9243191809786 l 6.666019378309297 1.6079568846086303 a27.857210780977596,27.857210780977596 0 0,0 -0.11645466294607068,0.46517849013940804 l -6.637353401068165 -1.7224632141454344" fill="#ff2e04" stroke="none" /><path d="M 120.23288151984713 105.62410040840565 l 13.928013983226762 3.871546870598055 a35.45608690788063,35.45608690788063 0 0,0 -0.16851326383870757,0.5866167782858565 l -13.859308082501956 -4.110721124388493" fill="#ff9b0e" stroke="none" /><path d="M 120.13307415673323 105.97154293290107 l 8.989806240145604 2.666409188362223 a30.37690536345245,30.37690536345245 0 0,0 -0.15300301531276828,0.5000227067373458 l -8.942576452326705 -2.8207588676516258" fill="#ff5307" stroke="none" /><path d="M 120.02730092923936 106.31721596034902 l 8.429911679511667 2.659048905007206 a29.83934115212142,29.83934115212142 0 0,0 -0.15872788720294054,0.48851420533510415 l -8.38289154129248 -2.803762010320105" fill="#ff4b07" stroke="none" /><path d="M 119.79798401119884 107.00284435728193 l 29.041783697510585 10.272515170053373 a51.80502829493861,51.80502829493861 0 0,0 -0.3046030548744135,0.8381367852078621 l -28.860656381630946 -10.770899752267367" fill="#95ff23" stroke="none" /><path d="M 119.41010516605496 108.01547362559984 l 12.721171168702144 5.253253968339902 a34.76317089770005,34.76317089770005 0 0,0 -0.23315992912310157,0.5511211981173815 l -12.628860258386734 -5.471449692123447" fill="#ff910d" stroke="none" /><path d="M 119.26925614724726 108.34839909993367 l 10.736525278560826 4.651596163703336 a32.70086842620475,32.70086842620475 0 0,0 -0.22821922880428264,0.5145741128368145 l -10.65486496502527 -4.835718613032838" fill="#ff740a" stroke="none" /><path d="M 118.97047184881838 109.00673069616215 l 11.227035911385947 5.3303307253421375 a33.42814390796454,33.42814390796454 0 0,0 -0.2512630311088991,0.5176762657358174 l -11.133619623662334 -5.52279594704323" fill="#ff7f0b" stroke="none" /><path d="M 118.81262510543309 109.33194174019688 l 7.185288732548807 3.564239199093682 a29.020734083514352,29.020734083514352 0 0,0 -0.22583842703366075,0.4456006418345368 l -7.1228716357288775 -3.6873940526309132" fill="#ff3f05" stroke="none" /><path d="M 118.64920377521936 109.65438752849418 l 8.381475125551212 4.338952477425759 a30.437988868482144,30.437988868482144 0 0,0 -0.24487723209565157,0.4632154387305846 l -8.305545385230667 -4.482582931242478" fill="#ff5407" stroke="none" /><line stroke="#e1ed5e" stroke-width="0.3" x1="174.80103733775053" x2="179.2010983576182" y1="140.37084112569926" y2="142.7455964860345" /><path d="M 175.68104954172406 140.8457921977663 a86.0,86.0 0 0,1 -30.038265399797805,32.042727171017184" fill="none" id="id53" stroke="none" /><text fill="#e1ed5e" style="font-size:6.75px; font-family:Arial;" text-anchor="middle"><textPath startOffset="22.206326154141568" xlink:href="#id53">May</textPath></text><path d="M 118.30583269289576 110.29060199501025 l 12.801266088599226 7.196216449695829 a35.685296887090615,35.685296887090615 0 0,0 -0.30561568627871194,0.5328667094497935 l -12.675498406168133 -7.415503005003938" fill="#ff9e0e" stroke="none" /><path d="M 118.12598468904814 110.60418214915192 l 5.539668838091456 3.240853306060442 a27.418026253228046,27.418026253228046 0 0,0 -0.2418258482240912,0.40531403142037814 l -5.483062114169137 -3.335729431366924" fill="#ff2703" stroke="none" /><path d="M 117.55443506779139 111.5257021239791 l 12.645639732660891 8.302738092279816 a36.12771179251,36.12771179251 0 0,0 -0.3457884704243325,0.5169068460886102 l -12.500848156825837 -8.519181852574233" fill="#ffa40f" stroke="none" /><path d="M 116.0416608686014 113.55231037782055 l 16.485015088089657 13.926864735940773 a42.58039118801451,42.58039118801451 0 0,0 -0.47782800613628695,0.5558219214902594 l -16.24284457238259 -14.20856375659256" fill="#fffa17" stroke="none" /><path d="M 115.56566222782051 114.09645910891815 l 10.0509339805998 9.102251981976824 a34.55995077519741,34.55995077519741 0 0,0 -0.4031230515178875,0.4375104546530413 l -9.89276452108619 -9.2739136914312" fill="#ff8f0d" stroke="none" /><path d="M 115.32070863581623 114.36230785411682 l 11.221433884310432 10.51946694125601 a36.381149604243774,36.381149604243774 0 0,0 -0.4322313561695524,0.45319284890558614 l -11.038695976761916 -10.711066906744103" fill="#ffa80f" stroke="none" /><path d="M 114.55890576462653 115.13401014063108 l 12.924705477424945 13.435255844245573 a39.642803203341316,39.642803203341316 0 0,0 -0.49584494408643165,0.46885234371465784 l -12.691524698947706 -13.655742824706152" fill="#ffd313" stroke="none" /><path d="M 114.0293411484842 115.62618273729858 l 14.121223830833289 15.728523650502122 a42.13753577654923,42.13753577654923 0 0,0 -0.543890538185996,0.47992016288061057 l -13.848390939740705 -15.969266955155021" fill="#fff417" stroke="none" /><path d="M 113.48314897796784 116.09983520530334 l 9.434703490277156 11.265704447274912 a35.69454751405424,35.69454751405424 0 0,0 -0.4744483075834941,0.3904386568648871 l -9.239385054148972 -11.426438222996978" fill="#ff9e0e" stroke="none" /><path d="M 113.20401910651253 116.32954008644616 l 4.316267705885772 5.337970655641587 a27.86469938375768,27.86469938375768 0 0,0 -0.3755663989645741,0.29837266132616036 l -4.223743814203846 -5.4114772309728725" fill="#ff2e04" stroke="none" /><path d="M 112.92097659922987 116.55440617244103 l 8.12531547291474 10.410186225851342 a34.20578391430409,34.20578391430409 0 0,0 -0.4672693678272959,0.35828222586195424 l -7.944917376593951 -10.548507793540669" fill="#ff8a0c" stroke="none" /><path d="M 112.34349029814194 116.9893568818739 l 7.82309823241133 10.767570969160946 a34.30944967043622,34.30944967043622 0 0,0 -0.4807777825977844,0.3430221824416688 l -7.636593121964661 -10.900637413446834" fill="#ff8b0c" stroke="none" /><path d="M 112.04921762599082 117.19931262002967 l 11.024456172431801 15.736546061419336 a40.2139927095084,40.2139927095084 0 0,0 -0.570355279540602,0.392295562045131 l -10.751944008268316 -15.923982412829561" fill="#ffdb14" stroke="none" /><path d="M 111.45004920935366 117.60387380957326 l 7.7572287367920145 11.926348376121117 a35.22717059936791,35.22717059936791 0 0,0 -0.5111599973345116,0.32624649499710456 l -7.550786937410573 -12.05810929994203" fill="#ff980e" stroke="none" /><path d="M 111.1453310114006 117.79835938074945 l 4.378649069606242 6.992414102669396 a29.250237733421592,29.250237733421592 0 0,0 -0.4290324585151758,0.26354677748452976 l -4.257637411158757 -7.066749346982303" fill="#ff4306" stroke="none" /><line stroke="#e1ed5e" stroke-width="0.3" x1="143.8653032363475" x2="146.44561519142675" y1="172.8068346515853" y2="177.08958963109032" /><path d="M 144.38136562736335 173.6633856474863 a86.0,86.0 0 0,1 -40.68145358897372,12.25698825130547" fill="none" id="id54" stroke="none" /><text fill="#e1ed5e" style="font-size:6.75px; font-family:Arial;" text-anchor="middle"><textPath startOffset="21.466115282336833" xlink:href="#id54">June</textPath></text><path d="M 110.5260780823613 118.17145234162733 l 9.98943582926943 17.245032354025 a40.92937452802924,40.92937452802924 0 0,0 -0.6126761596204789,0.3478935132980568 l -9.691110902727752 -17.414429033117685" fill="#ffe415" stroke="none" /><path d="M 110.21172684928248 118.3499491758327 l 3.985732296694559 7.162156425870224 a29.19649599582335,29.19649599582335 0 0,0 -0.4412524667829844,0.24060602704455522 l -3.861857018042926 -7.22970310467455" fill="#ff4206" stroke="none" /><path d="M 109.89434966115114 118.52300852407294 l 10.614105185596168 19.8704480396674 a43.52762602202064,43.52762602202064 0 0,0 -0.6639187907751265,0.34733093259366976 l -10.270495492294545 -20.050208391205786" fill="#f8ff18" stroke="none" /><path d="M 109.2508944713604 118.85261126421891 l 4.985433750354021 10.15993045536491 a32.31718766023699,32.31718766023699 0 0,0 -0.5015124792538301,0.24075646690501265 l -4.809808603099959 -10.244241198769481" fill="#ff6f0a" stroke="none" /><path d="M 107.59598834532513 119.57807347666477 l 8.35515874013948 21.534776554037364 a44.09881552818773,44.09881552818773 0 0,0 -0.7100534647275945,0.2684814635001752 l -7.983235054651612 -21.67540626764417" fill="#f1ff19" stroke="none" /><path d="M 106.57524785965236 119.94407469862006 l 3.2884208329724265 9.974454519919489 a31.502545146042905,31.502545146042905 0 0,0 -0.5164597080519798,0.16535408925820894 l -3.116239779829506 -10.029581455837404" fill="#ff6309" stroke="none" /><path d="M 105.88484417918355 120.15858648285463 l 3.6940409520491926 12.65397039168871 a34.182143423174814,34.182143423174814 0 0,0 -0.566233443061936,0.16002322696229151 l -3.4756763408826505 -12.715682411989519" fill="#ff890c" stroke="none" /><path d="M 104.48393922423573 120.51570834832081 l 1.878511480375161 8.594896525814981 a29.797786748459394,29.797786748459394 0 0,0 -0.5020338753386412,0.10520607976115186 l -1.730286143607142 -8.625958586302675" fill="#ff4b06" stroke="none" /><path d="M 104.13013068566511 120.58985236759428 l 1.2801275815110718 6.381792713359118 a27.50891733402944,27.50891733402944 0 0,0 -0.4650741210309649,0.08913256218132153 l -1.1700858459084025 -6.402882473888908" fill="#ff2904" stroke="none" /><path d="M 103.7750983002368 120.6578951692458 l 1.117346459513235 6.1142847662813 a27.215540307468558,27.215540307468558 0 0,0 -0.4615639367832766,0.08024880676939551 l -1.0119335512579084 -6.132612151571702" fill="#ff2403" stroke="none" /><path d="M 103.41894727170886 120.7198165907248 l 1.1297175485895343 6.8464174922472 a27.93899807016399,27.93899807016399 0 0,0 -0.47518133892254416,0.07421355254189013 l -1.011700346058473 -6.864849352136195" fill="#ff2f04" stroke="none" /><path d="M 102.70371172650421 120.8252237178851 l 3.0010587649210607 23.115526539809068 a44.30952425347044,44.30952425347044 0 0,0 -0.7572130072481096,0.09168794994599037 l -2.6027183346215708 -23.163760018480406" fill="#efff19" stroke="none" /><path d="M 101.98527174616119 120.90594882070398 l 0.942639925695962 9.926490960775464 a30.971148019354295,30.971148019354295 0 0,0 -0.5311635688208689,0.04583102773760131 l -0.7716320391335514 -9.94124624079173" fill="#ff5c08" stroke="none" /><path d="M 100.90346689309514 120.98055641714683 l 0.5184197527235826 12.038885932519749 a33.05004288524468,33.05004288524468 0 0,0 -0.5685860890818504,0.019583254554635453 l -0.31111331196708 -12.04602598550048" fill="#ff790b" stroke="none" /><line stroke="#e1ed5e" stroke-width="0.3" x1="102.19456741930631" x2="102.32365962044197" y1="184.97166512339345" y2="189.96999836594603" /><path d="M 102.22038585953345 185.97133177190398 a86.0,86.0 0 0,1 -42.740103519485714,-10.115201625700543" fill="none" id="id55" stroke="none" /><text fill="#e1ed5e" style="font-size:6.75px; font-family:Arial;" text-anchor="middle"><textPath startOffset="22.20632615414155" xlink:href="#id55">July</textPath></text><path d="M 100.54218724476979 120.99299961872073 l 0.404748694801113 15.671503300017953 a36.676729161034096,36.676729161034096 0 0,0 -0.6312594457946091,0.010867703834792483 l -0.13492955911383583 -15.676148481131905" fill="#ffac0f" stroke="none" /><path d="M 99.45781275523022 120.99299961872073 l -0.19886761720412696 7.699974229225597 a28.702541883035156,28.702541883035156 0 0,0 -0.4937925827403224,-0.0170072149682901 l 0.33138055161909236 -7.695410215831213" fill="#ff3b05" stroke="none" /><path d="M 99.09653310690486 120.98055641714683 l -0.34235350123806346 7.950227066678552 a28.957594883603853,28.957594883603853 0 0,0 -0.4978112982394999,-0.025731157915710557 l 0.47915286789105227 -7.94315610200064" fill="#ff3e05" stroke="none" /><path d="M 98.73552117531835 120.96189622390904 l -0.5891933999383643 9.767352892152683 a30.785107632641264,30.785107632641264 0 0,0 -0.5286788678932969,-0.03646079005086351 l 0.7572350286105912 -9.755763757585536" fill="#ff5908" stroke="none" /><path d="M 98.37488393609728 120.93702456842531 l -0.6276505708333528 8.086275013715408 a29.110597316875346,29.110597316875346 0 0,0 -0.49925462083859456,-0.04307778943983981 l 0.7667495094134891 -8.074272971996905" fill="#ff4106" stroke="none" /><path d="M 98.01472825383883 120.90594882070398 l -0.7840456548391028 8.256410420818472 a29.293554161267167,29.293554161267167 0 0,0 -0.501571771712393,-0.05198996494122883 l 0.9260500231570892 -8.241691087421483" fill="#ff4306" stroke="none" /><path d="M 97.65516085044442 120.86867818915974 l -2.8655708180898283 25.50310337589589 a46.6635885626917,46.6635885626917 0 0,0 -0.7974420131982326,-0.09655912232236373 l 3.3041402543394502 -25.449998724848175" fill="#d1ff1c" stroke="none" /><path d="M 96.93821686468263 120.77559828337769 l -1.6796662029129084 11.397303054995065 a32.520407782739625,32.520407782739625 0 0,0 -0.5531011124200503,-0.08638301866112244 l 1.8756031789414758 -11.366701728986838" fill="#ff720a" stroke="none" /><path d="M 96.58105272829116 120.7198165907248 l -1.027854830377625 6.229099741766525 a27.31333264965552,27.31333264965552 0 0,0 -0.46322245312861204,-0.08053716109501345 l 1.1349262549782868 -6.210484002150506" fill="#ff2603" stroke="none" /><path d="M 96.22490169976321 120.6578951692458 l -2.20602676606092 12.07170411191102 a33.271617426325946,33.271617426325946 0 0,0 -0.5625000810441172,-0.10780447929357846 l 2.4134944616767324 -12.031942434268974" fill="#ff7c0b" stroke="none" /><path d="M 95.86986931433489 120.58985236759428 l -0.9006347880478649 4.489915388727912 a25.579354017694826,25.579354017694826 0 0,0 -0.4309616125038548,-0.09031219606145673 l 0.9777878619811065 -4.473747211939914" fill="#ff0c01" stroke="none" /><path d="M 94.46302465271185 120.25689768951611 l -2.8556876923402394 10.447468119083924 a31.83072215022888,31.83072215022888 0 0,0 -0.5272817206088911,-0.14901508111882175 l 3.035100581053744 -10.39676424462658" fill="#ff6809" stroke="none" /><path d="M 94.11515582081647 120.15858648285463 l -1.4098048576898816 4.829299176385837 a26.030872714729217,26.030872714729217 0 0,0 -0.4290445944632551,-0.1292676168053036 l 1.4927244265933826 -4.804316190474808" fill="#ff1302" stroke="none" /><path d="M 93.08242187328487 119.8279376855182 l -3.9166159665912104 11.226243621848752 a32.889845519890365,32.889845519890365 0 0,0 -0.5329414802061291,-0.19109385365227385 l 4.109277007427066 -11.15716222715652" fill="#ff770b" stroke="none" /><path d="M 92.7421414339146 119.70592522655815 l -5.436187693736197 14.759878169971024 a36.729149380494675,36.729149380494675 0 0,0 -0.5913913891280598,-0.22361362001862442 l 5.6894493036245395 -14.664116299845766" fill="#ffac10" stroke="none" /><path d="M 92.06813273071674 119.44442032107085 l -3.9671722609783946 9.725246566755443 a31.50327932278605,31.50327932278605 0 0,0 -0.5003448939796479,-0.20914420626266597 l 4.133988614455505 -9.655517317472805" fill="#ff6309" stroke="none" /><path d="M 91.7346041902142 119.30500536409082 l -2.3769090846671523 5.551608620500505 a27.039044218416418,27.039044218416418 0 0,0 -0.42628897703489305,-0.1868725600538536 l 2.4721187363597883 -5.5098715071522" fill="#ff2203" stroke="none" /><path d="M 91.40352486487194 119.15986991738527 l -4.698816815246395 10.472748135786054 a32.47855970838034,32.47855970838034 0 0,0 -0.5081069674086538,-0.23324698766431096 l 4.8783917784224675 -10.390314077787668" fill="#ff710a" stroke="none" /><path d="M 90.7491055286396 118.85261126421891 l -2.8999656347097815 5.909906870090756 a27.583069185087123,27.583069185087123 0 0,0 -0.42444576291795083,-0.21282591687656016 l 3.001265305310493 -5.859113112304894" fill="#ff2a04" stroke="none" /><path d="M 90.42595943632237 118.69057910512821 l -7.903651066658118 15.429620806198056 a38.33611543589122,38.33611543589122 0 0,0 -0.5847336445671618,-0.30590500661879544 l 8.168075613751775 -15.291286380634544" fill="#ffc212" stroke="none" /><line stroke="#e1ed5e" stroke-width="0.3" x1="58.666819895761336" x2="56.23545636021788" y1="174.27360380694188" y2="178.64263932499728" /><path d="M 58.180547188652646 175.14741091055294 a86.0,86.0 0 0,1 -31.652253787137756,-30.449443065178592" fill="none" id="id56" stroke="none" /><text fill="#e1ed5e" style="font-size:6.75px; font-family:Arial;" text-anchor="middle"><textPath startOffset="22.20632615414155" xlink:href="#id56">August</textPath></text><path d="M 89.7882731507175 118.34994917583269 l -3.382670814852919 6.078485886594684 a27.95632464130222,27.95632464130222 0 0,0 -0.41848119634973296,-0.2376245449757112 l 3.4868007781238592 -6.019358175824339" fill="#ff3004" stroke="none" /><path d="M 89.4739219176387 118.17145234162733 l -3.385674355556214 5.844780906513887 a27.754572872285877,27.754572872285877 0 0,0 -0.41133880017806884,-0.2430262135777665 l 3.4857810267626648 -5.785636120642371" fill="#ff2d04" stroke="none" /><path d="M 89.1626897886671 117.98757091392108 l -4.058649107072349 6.736472169251236 a28.864648107921653,28.864648107921653 0 0,0 -0.42337676208925706,-0.26007258680758144 l 4.174005069093915 -6.665611115615277" fill="#ff3d05" stroke="none" /><path d="M 85.70375840098266 115.38237550388516 l -3.9008015526215023 4.1971586611047895 a26.729955809552223,26.729955809552223 0 0,0 -0.33433340664220806,-0.3161331040192693 l 3.9724707936545274 -4.129390920339589" fill="#ff1d03" stroke="none" /><line stroke="#e1ed5e" stroke-width="0.3" x1="26.63291911575756" x2="22.317208475507996" y1="142.92168965132927" y2="145.44649492493687" /><path d="M 25.769776987707644 143.4266507060508 a86.0,86.0 0 0,1 -11.730757126820373,-40.83630448921669" fill="none" id="id57" stroke="none" /><text fill="#e1ed5e" style="font-size:6.75px; font-family:Arial;" text-anchor="middle"><textPath startOffset="21.46611528233685" xlink:href="#id57">September</textPath></text><path d="M 81.02952815118164 109.00673069616217 l -5.202452451328779 2.470001197762809 a26.759029208580777,26.759029208580777 0 0,0 -0.19397159401287992,-0.4177975569806365 l 5.244198662181486 -2.3800835735033457" fill="#ff1e03" stroke="none" /><path d="M 80.58989483394504 108.01547362559985 l -7.243841910535439 2.9913709011455456 a28.837189897728013,28.837189897728013 0 0,0 -0.1855156651117296,-0.46043466677834616 l 7.294260189904556 -2.8662368665243942" fill="#ff3d05" stroke="none" /><path d="M 80.20201598880116 107.00284435728193 l -12.878896561362378 4.555459185225037 a34.660826659705585,34.660826659705585 0 0,0 -0.19411576296517943,-0.564191270751314 l 12.955403155270785 -4.3330952113844265" fill="#ff900d" stroke="none" /><path d="M 79.67330655649465 105.27499134158121 l -21.45727018556881 5.568387930748711 a43.16802625322805,43.16802625322805 0 0,0 -0.18046020424987141,-0.7208488111985519 l 21.54994170411374 -5.198211280152767" fill="#fdff18" stroke="none" /><path d="M 79.58551787078972 104.9243191809786 l -9.994889569348937 2.4109368097897415 a31.281557946356152,31.281557946356152 0 0,0 -0.12175889730217604,-0.5245341428513699 l 10.034909032581668 -2.2385340095897974" fill="#ff6008" stroke="none" /><path d="M 79.18660465613746 102.79330883721812 l -22.015866008918685 2.9546891348439663 a43.2132515406058,43.2132515406058 0 0,0 -0.09259671904112268,-0.7380869574822662 l 22.063464237206656 -2.5752844230742915" fill="#fcff18" stroke="none" /><path d="M 79.10278846688536 102.07522291339032 l -12.365996960221784 1.228020312571453 a33.426822389826874,33.426822389826874 0 0,0 -0.05193159884012377,-0.5730608658104367 l 12.385303155338983 -1.0149780582124504" fill="#ff7f0b" stroke="none" /><path d="M 79.04373962182676 101.35467743843564 l -9.245279699622706 0.5976434533210202 a30.26457632175121,30.26457632175121 0 0,0 -0.0291313107764475,-0.5201591232211819 l 9.254197361286685 -0.4384126137644007" fill="#ff5107" stroke="none" /><path d="M 79.0095281055655 100.63252640178507 l -7.667932120988115 0.23106529181494048 a28.671412789125796,28.671412789125796 0 0,0 -0.010619259590766476,-0.4934352656035814 l 7.670773443263889 -0.09904021042123022" fill="#ff3a05" stroke="none" /><line stroke="#e1ed5e" stroke-width="0.3" x1="15.007084014347285" x2="10.007500721073583" y1="101.09737516637583" y2="101.16192664675087" /><path d="M 14.007167355692545 101.11028546245083 a86.0,86.0 0 0,1 10.666146001902534,-42.60595125391555" fill="none" id="id58" stroke="none" /><text fill="#e1ed5e" style="font-size:6.75px; font-family:Arial;" text-anchor="middle"><textPath startOffset="22.20632615414155" xlink:href="#id58">October</textPath></text><path d="M 79.00175016825051 100.2711162175752 l -18.46021659096587 0.23834672593495443 a39.46175521848168,39.46175521848168 0 0,0 -0.002923369502588598,-0.6792881183298941 l 18.46158425775796 0.07945087059861511" fill="#ffd113" stroke="none" /><path d="M 79.00019446554 99.90962569577889 l -9.548173795875533 -0.04109131210613248 a30.54826221530257,30.54826221530257 0 0,0 0.006788977253570289,-0.5258137700044363 l 9.546051811504245 0.2054413401710408" fill="#ff5607" stroke="none" /><path d="M 79.01574976396665 99.18683210126434 l -6.466327336678721 -0.25057887481129804 a27.471180649431773,27.471180649431773 0 0,0 0.022377751356071743,-0.4723589628791774 l 6.461055977089151 0.3618489443134845" fill="#ff2803" stroke="none" /><path d="M 79.03285615573316 98.82574320788736 l -9.634627684925341 -0.5395836019694032 a30.649725441205263,30.649725441205263 0 0,0 0.03403492776980516,-0.5265052683832694 l 9.623912166151122 0.7053479346056843" fill="#ff5708" stroke="none" /><path d="M 79.12142395522702 97.74499172005258 l -18.173838591689044 -1.9628808216998508 a39.279532550833,39.279532550833 0 0,0 0.07839006397092617,-0.6715981960975715 l 18.137358174714528 2.275422756122284" fill="#ffcf13" stroke="none" /><path d="M 80.38941819471856 92.48833698450439 l -11.098929661660327 -4.251348597349005 a32.88529362408286,32.88529362408286 0 0,0 0.2070308538637263,-0.5268709411484612 l 11.024105257914908 4.44176854339323" fill="#ff770b" stroke="none" /><path d="M 80.65960295795068 91.81776055985345 l -8.900507948569594 -3.7654908022719273 a30.66426214071954,30.66426214071954 0 0,0 0.2098447307352745,-0.4843505706046395 l 8.83437250799164 3.9181405174631663" fill="#ff5708" stroke="none" /><path d="M 80.95270993114464 91.15688171328213 l -10.659596057338357 -4.948949088448429 a32.752407633573554,32.752407633573554 0 0,0 0.24180916359716423,-0.5093117675607797 l 10.572828699899441 5.131703271649741" fill="#ff750a" stroke="none" /><path d="M 81.10775173730289 90.83032412892265 l -5.882702972245953 -2.855270518958218 a27.5390185804984,27.5390185804984 0 0,0 0.21066036133557084,-0.4246784337830165 l 5.83268259795697 2.956108541240196" fill="#ff2904" stroke="none" /><path d="M 81.26839172434947 90.50648371742162 l -21.211302780839638 -10.750270097542272 a44.77998471047799,44.77998471047799 0 0,0 0.3543814781959888,-0.6845522185156451 l 21.023111869483536 11.113795038318251" fill="#e9ff1a" stroke="none" /><path d="M 81.6062741919709 89.86733742301443 l -13.08599992668963 -7.208763636224477 a35.94020305231068,35.94020305231068 0 0,0 0.303168206719776,-0.5393024113369183 l 12.959974078677423 7.43294955749618" fill="#ffa20e" stroke="none" /><line stroke="#e1ed5e" stroke-width="0.3" x1="26.266209847984243" x2="21.928928074336255" y1="57.711370442889674" y2="55.22380399835377" /><path d="M 25.398753493254645 57.213857153982495 a86.0,86.0 0 0,1 29.58750427330803,-30.492523968695096" fill="none" id="id59" stroke="none" /><text fill="#e1ed5e" style="font-size:6.75px; font-family:Arial;" text-anchor="middle"><textPath startOffset="21.46611528233685" xlink:href="#id59">November</textPath></text><path d="M 81.96595687620814 89.24020034530311 l -8.971038223798386 -5.352464409678238 a31.4464540428666,31.4464540428666 0 0,0 0.28134723402729317,-0.4624608774666613 l 8.877575191484876 5.506093060351974" fill="#ff6309" stroke="none" /><path d="M 82.34701348167596 88.62581576622439 l -7.185129062804705 -4.629527225830286 a29.547432479046833,29.547432479046833 0 0,0 0.279157620017979,-0.425176207190835 l 7.104374807428806 4.752521496998789" fill="#ff4706" stroke="none" /><path d="M 82.54541684631803 88.32363383020206 l -3.1651209609156097 -2.1173299291056074 a24.808027931346317,24.808027931346317 0 0,0 0.24049083532517332,-0.3528906258292624 l 3.128205659921696 2.1714985782052856" fill="#ff0000" stroke="none" /><path d="M 82.7489923806493 88.02491185347247 l -14.480405377584628 -10.051826224893503 a38.627289932222666,38.627289932222666 0 0,0 0.383858473334837,-0.5429405881901394 l 14.305234284445913 10.299593313415428" fill="#ffc612" stroke="none" /><path d="M 83.17141714833178 87.43820079747576 l -8.098274038580605 -6.045006478342898 a31.10564919869853,31.10564919869853 0 0,0 0.3239787559382875,-0.4263180664518849 l 7.99301934241821 6.183509320675809" fill="#ff5e08" stroke="none" /><path d="M 83.6137871275137 86.86637796730984 l -10.508132772161941 -8.422314855351884 a34.46685716416658,34.46685716416658 0 0,0 0.37503470644760273,-0.4597482055019116 l 10.361599573637946 8.601947230461878" fill="#ff8d0d" stroke="none" /><path d="M 83.84228863543731 86.58626213691792 l -3.745084330271543 -3.1090776625442222 a25.867444971705062,25.867444971705062 0 0,0 0.2873619222906975,-0.34014587737608 l 3.691011794493721 3.173082489549418" fill="#ff1001" stroke="none" /><path d="M 84.07557802195018 86.31012108654704 l -20.056327204288994 -17.241987888400203 a47.44886400715997,47.44886400715997 0 0,0 0.5377721760805942,-0.6147665605804911 l 19.756563164630556 17.584670005183636" fill="#c8ff1d" stroke="none" /><path d="M 84.31358615837235 86.03803664274999 l -10.969616556100707 -9.763696530364474 a35.68544372243924,35.68544372243924 0 0,0 0.4123476122232437,-0.455324532403653 l 10.79992530326142 9.951073850037684" fill="#ff9e0e" stroke="none" /><path d="M 84.80347519578584 85.50635884689758 l -7.463883317270768 -7.118656916820286 a31.314302229100434,31.314302229100434 0 0,0 0.3753775680126514,-0.38685958045682034 l 7.340241485554999 7.246080692827229" fill="#ff6108" stroke="none" /><path d="M 85.31137513191541 84.99185889309783 l -9.251582368749181 -9.452828627546133 a34.22678136915805,34.22678136915805 0 0,0 0.42460238399426903,-0.4084671569904545 l 9.087496741142486 9.6106788712989" fill="#ff8a0c" stroke="none" /><path d="M 85.57189188830299 84.74124197986013 l -6.490953805235947 -6.864648689020113 a30.44753316614303,30.44753316614303 0 0,0 0.38391746382330083,-0.3568094417870413 l 6.37182845761779 6.9753627168818015" fill="#ff5407" stroke="none" /><path d="M 85.83668400450813 84.49514656593479 l -18.85740755372479 -20.643565416460454 a48.95994657990174,48.95994657990174 0 0,0 0.6271279846610366,-0.5630416966499728 l 18.49926858146778 20.965106121879707" fill="#b6ff1f" stroke="none" /><path d="M 86.37877921826538 84.01681056812374 l -4.727419390112478 -5.5471709068407336 a28.28831936455255,28.28831936455255 0 0,0 0.37332830971330416,-0.31265172303746913 l 4.6312335434400635 5.627723787272015" fill="#ff3405" stroke="none" /><path d="M 87.80319425747018 82.90503203632743 l -36.59041722758948 -51.284903891017706 a84.0,84.0 0 0,0 1.184275441665359,-0.8296606289442297 l 35.70221064634046 51.907149362725875" fill="#4dd2ff" stroke="none" /><line stroke="#e1ed5e" stroke-width="0.3" x1="56.762969772571076" x2="54.21961505331055" y1="26.818313649435495" y2="22.513508569990535" /><path d="M 56.25429882871897 25.957352633546506 a86.0,86.0 0 0,1 42.265352541879196,-11.944610805530505" fill="none" id="id60" stroke="none" /><text fill="#e1ed5e" style="font-size:6.75px; font-family:Arial;" text-anchor="middle"><textPath startOffset="22.20632615414155" xlink:href="#id60">December</textPath></text><path d="M 89.3179101791058 81.91981866633112 l -5.125511941064649 -8.675286098144465 a31.076282128972714,31.076282128972714 0 0,0 0.4628934567986782,-0.2681377678830395 l 4.97542175180065 8.762228023417551" fill="#ff5d08" stroke="none" /><path d="M 89.94658935756843 81.56283822128135 l -7.327415454624022 -13.437901719302607 a36.30582307039706,36.30582307039706 0 0,0 0.5512519774220492,-0.2944597152739139 l 7.095018430673668 13.56204016107827" fill="#ffa70f" stroke="none" /><path d="M 91.23893434514133 80.91482961587045 l -6.3660724382026075 -13.86789940256049 a36.25927626488165,36.25927626488165 0 0,0 0.5694741754100588,-0.2555064627327169 l 6.126416144325774 13.975426195809735" fill="#ffa60f" stroke="none" /><path d="M 91.56875222667455 80.76684994638697 l -4.016796320375872 -9.163014590676495 a31.004773314190356,31.004773314190356 0 0,0 0.4906376075397652,-0.21006541821665783 l 3.858474955045798 9.230799536855939" fill="#ff5c08" stroke="none" /><path d="M 94.63758080256005 79.69619591428918 l -6.457182500632471 -24.448921953194645 a46.287249564155395,46.287249564155395 0 0,0 0.7720958137877509,-0.19682441436491285 l 6.035377798159721 24.556449363728422" fill="#d6ff1c" stroke="none" /><path d="M 95.33964822691252 79.52364482259891 l -3.424193932340922 -15.04500401875527 a36.42975210464,36.42975210464 0 0,0 0.612639619668438,-0.13389929191389735 l 3.164711588518963 15.101716808765035" fill="#ffa80f" stroke="none" /><path d="M 97.11714578562143 79.19881850522333 l -4.424705370606436 -31.926380118648364 a53.23153370687003,53.23153370687003 0 0,0 0.9087009910881154,-0.11797546853630997 l 3.874489651010463 31.99781391034881" fill="#84ff25" stroke="none" /><path d="M 97.83486435360386 79.11191278185805 l -0.6578035457582685 -6.346141803665889 a27.380142733281748,27.380142733281748 0 0,0 0.46921073268528374,-0.04455721280983524 l 0.5484676859827485 6.356524560990905" fill="#ff2703" stroke="none" /><path d="M 98.19473922651362 79.07773832637324 l -1.2437370379335846 -14.414422637995811 a35.46798057111959,35.46798057111959 0 0,0 0.6087146743494105,-0.047247974151513696 l 0.9954321742218399 14.433695874335786" fill="#ff9b0e" stroke="none" /><path d="M 99.27714615592234 79.0124445844662 l -0.620997717427738 -18.030234070435945 a39.04092510931076,39.04092510931076 0 0,0 0.6718262129455412,-0.01735128899998895 l 0.3105448692873177 18.03825215157829" fill="#ffcb13" stroke="none" /></svg>