<?xml version="1.0" encoding="utf-8" ?>
<svg baseProfile="full" height="200mm" version="1.1" viewBox="0,0,200,200" width="200mm" xmlns="http://www.w3.org/2000/svg" xmlns:ev="http://www.w3.org/2001/xml-events" xmlns:xlink="http://www.w3.org/1999/xlink"><defs /><rect fill="#1a1a1a" height="200" width="200" x="0" y="0" /><text alignment-baseline="middle" fill="#e1ed5e" style="dominant-baseline: central; font-size:9.0px; font-family:Arial;" text-anchor="middle" x="100.0" y="100.0">2020</text><line stroke="#e1ed5e" stroke-width="0.3" x1="100.0" x2="100.0" y1="15.0" y2="10.0" /><path d="M 100.0 14.0 a86.0,86.0 0 0,1 42.35913384403234,11.155469271406648" fill="none" id="id13" stroke="none" /><text fill="#e1ed5e" style="font-size:6.75px; font-family:Arial;" text-anchor="middle"><textPath startOffset="22.145653131862478" xlink:href="#id13">January</textPath></text><path d="M 100.0 79.0 l 0.0 -57.797359169323855 a78.79735916932385,78.79735916932385 0 0,0 1.3526614513007278,0.011610971711418805 l -0.9921685264518729 57.78884259580687" fill="#46fff9" stroke="none" /><path d="M 101.08105385017728 79.02784411241856 l 1.474977228036686 -28.614164180577593 a49.65215436186739,49.65215436186739 0 0,0 0.8508384845670844,0.0511843304132159 l -1.9659600647362327 28.584627872339684" fill="#afff20" stroke="none" /><line stroke="#e1ed5e" stroke-width="0.3" x1="143.13028292997686" x2="145.6673583964461" y1="26.7553504044142" y2="22.446841604673864" /><path d="M 143.63769802327073 25.89364864446614 a86.0,86.0 0 0,1 29.32050498858742,28.57503671076993" fill="none" id="id14" stroke="none" /><text fill="#e1ed5e" style="font-size:6.75px; font-family:Arial;" text-anchor="middle"><textPath startOffset="20.669276256404974" xlink:href="#id14">February</textPath></text><line stroke="#e1ed5e" stroke-width="0.3" x1="172.87174338648825" x2="177.1583165268699" y1="56.24261187166439" y2="53.66864786411523" /><path d="M 173.72905801456457 55.72781907015455 a86.0,86.0 0 0,1 12.242430191666344,42.057860355516425" fill="none" id="id15" stroke="none" /><text fill="#e1ed5e" style="font-size:6.75px; font-family:Arial;" text-anchor="middle"><textPath startOffset="22.145653131862474" xlink:href="#id15">March</textPath></text><line stroke="#e1ed5e" stroke-width="0.3" x1="184.99686870605535" x2="189.99668451229388" y1="99.2704041080226" y2="99.22748670261217" /><path d="M 185.99683186730306 99.26182062694052 a86.0,86.0 0 0,1 -10.086455211305974,41.156179273409016" fill="none" id="id16" stroke="none" /><text fill="#e1ed5e" style="font-size:6.75px; font-family:Arial;" text-anchor="middle"><textPath startOffset="21.40746469413373" xlink:href="#id16">April</textPath></text><line stroke="#e1ed5e" stroke-width="0.3" x1="174.33088141563837" x2="178.70328620479359" y1="141.23008692659167" y2="143.65538615756765" /><path d="M 175.20536237346943 141.71514677278685 a86.0,86.0 0 0,1 -30.301960400862466,31.631185727798858" fill="none" id="id17" stroke="none" /><text fill="#e1ed5e" style="font-size:6.75px; font-family:Arial;" text-anchor="middle"><textPath startOffset="22.145653131862474" xlink:href="#id17">May</textPath></text><line stroke="#e1ed5e" stroke-width="0.3" x1="143.1302829299769" x2="145.66735839644613" y1="173.24464959558577" y2="177.55315839532614" /><path d="M 143.63769802327073 174.10635135553383 a86.0,86.0 0 0,1 -40.68552437913181,11.842963189579606" fill="none" id="id18" stroke="none" /><text fill="#e1ed5e" style="font-size:6.75px; font-family:Arial;" text-anchor="middle"><textPath startOffset="21.407464694133747" xlink:href="#id18">June</textPath></text><path d="M 110.65571695917076 118.09573695890943 l 8.16464945104205 13.865359730731708 a37.09067124519663,37.09067124519663 0 0,0 -0.5514279492792438,0.3183670749550559 l -7.925429033902408 -14.003473702962935" fill="#ffaf10" stroke="none" /><path d="M 110.02825361518725 118.45085714620011 l 6.840464386518462 12.585684013633193 a35.32450331125828,35.32450331125828 0 0,0 -0.5352691443060621,0.2850006701885272 l -6.623406426425846 -12.70125515154429" fill="#ff970d" stroke="none" /><path d="M 109.06512990194946 118.94263497670748 l 11.896114655075095 24.85830429232875 a48.55817185839261,48.55817185839261 0 0,0 -0.7549900545491526,0.35337346721167745 l -11.467635886654437 -25.05885399111096" fill="#bcff1f" stroke="none" /><path d="M 108.4095320186766 119.2426549942271 l 9.335100793577134 21.360537483916858 a44.31129915787753,44.31129915787753 0 0,0 -0.6996225035420095,0.2986272446364561 l -8.967043214864692 -21.517639378212717" fill="#f0ff19" stroke="none" /><path d="M 106.72888874123015 119.89276391827305 l 6.897418127030989 20.39099110168386 a42.52595862971138,42.52595862971138 0 0,0 -0.6935320900194889,0.22797777328708366 l -6.546363299363767 -20.50638979637296" fill="#fff717" stroke="none" /><path d="M 106.0420521117495 120.11202640906438 l 8.238024285251024 27.421703573408614 a49.632409451394,49.632409451394 0 0,0 -0.8180838853798352,0.2381322961517731 l -7.766080387489582 -27.559079563862902" fill="#afff20" stroke="none" /><path d="M 102.51750503828377 120.84855314841334 l 3.4332077879486684 28.431885516856873 a49.63841877197285,49.63841877197285 0 0,0 -0.8468411117763245,0.09489031291606437 l -2.9446307745715443 -28.48663159027991" fill="#afff20" stroke="none" /><path d="M 102.15924093988457 120.88869738790638 l 0.6808496899807707 6.586603133515294 a27.62169896165481,27.62169896165481 0 0,0 -0.47206856273264675,0.04470538369861606 l -0.5676815638631086 -6.597320272719094" fill="#ff2803" stroke="none" /><path d="M 101.80034050326958 120.92268563240118 l 1.9376487881849571 22.518416037172525 a43.60162701332679,43.60162701332679 0 0,0 -0.7462750774683466,0.05776641076950195 l -1.5508047159413745 -22.54836021493708" fill="#f9ff18" stroke="none" /><line stroke="#e1ed5e" stroke-width="0.3" x1="101.45913802915013" x2="101.54496967792366" y1="184.9874750549273" y2="189.98673829345242" /><path d="M 101.47630435890484 185.9873277026323 a86.0,86.0 0 0,1 -42.54439059252881,-10.42667462771756" fill="none" id="id19" stroke="none" /><text fill="#e1ed5e" style="font-size:6.75px; font-family:Arial;" text-anchor="middle"><textPath startOffset="22.145653131862474" xlink:href="#id19">July</textPath></text><path d="M 99.27912038922189 120.98762331915562 l -0.6716952403100875 19.55567403783476 a40.56720627912681,40.56720627912681 0 0,0 -0.695774412673018,-0.029879547013223363 l 1.0072954135839443 -19.541261922395705" fill="#ffde14" stroke="none" /><path d="M 98.91894614982273 120.97215588758144 l -1.7378088688791051 33.71302779688353 a54.757787588913416,54.757787588913416 0 0,0 -0.9383285299334441,-0.05644751428550557 l 2.3162817509449956 -33.678228304773334" fill="#75ff27" stroke="none" /><path d="M 98.55909050195518 120.95050786540614 l -1.3692822414990558 19.909063275252677 a40.9560951680157,40.9560951680157 0 0,0 -0.7009947836343323,-0.05426142965415667 l 1.7108460199086242 -19.882624078603467" fill="#ffe315" stroke="none" /><path d="M 98.19965949673042 120.92268563240118 l -2.455112367552489 28.532127208843395 a49.63756029760445,49.63756029760445 0 0,0 -0.8483305744434699,-0.08033778740576984 l 2.944542505380974 -28.485777665932442" fill="#afff20" stroke="none" /><path d="M 97.84075906011543 120.88869738790638 l -0.8889001721697969 8.599302820511259 a29.645123047992804,29.645123047992804 0 0,0 -0.5057515847963099,-0.056670519973282915 l 1.036387658566906 -8.582776540031006" fill="#ff4606" stroke="none" /><path d="M 97.48249496171623 120.84855314841334 l -3.433310702879518 28.432737800118606 a49.639277246341265,49.639277246341265 0 0,0 -0.8451020248037465,-0.10941537664281374 l 3.9208905495740582 -28.369610827275398" fill="#afff20" stroke="none" /><path d="M 97.12497278360702 120.80226474461374 l -0.5782492807069513 4.183923740638525 a25.223693892568065,25.223693892568065 0 0,0 -0.4284123026340856,-0.06296185529933108 l 0.6499866889487218 -4.173380812040311" fill="#ff0300" stroke="none" /><path d="M 96.41257539226777 120.69131181640829 l -7.337731765173715 42.32208689518641 a63.953478865178646,63.953478865178646 0 0,0 -1.0800989343835914,-0.1968300058332519 l 8.063165433108365 -42.189888715421795" fill="#33ff51" stroke="none" /><path d="M 96.05791012581884 120.62667999033965 l -2.592767720779203 13.566456314470393 a34.81199411331862,34.81199411331862 0 0,0 -0.5860077268920824,-0.11721795748198448 l 2.8252719332022433 -13.519948960325546" fill="#ff900d" stroke="none" /><path d="M 95.70440661134978 120.55596938700252 l -5.860564702510515 28.044923649816948 a49.65072357125338,49.65072357125338 0 0,0 -0.8328024230404557,-0.18150541196052009 l 6.3411295421701075 -27.94018677972271" fill="#afff20" stroke="none" /><path d="M 94.6519064749342 120.30758222061772 l -9.028633619769481 34.283192452406865 a56.45212983402829,56.45212983402829 0 0,0 -0.9350047958630677,-0.2548397148941184 l 9.615819816567244 -34.1231522433686" fill="#62ff29" stroke="none" /><path d="M 94.30408787586889 120.21278271476187 l -3.887697140947911 13.796065644669383 a35.33337421306516,35.33337421306516 0 0,0 -0.5823949386964966,-0.16952667873977115 l 4.123952092026014 -13.727295271627096" fill="#ff970d" stroke="none" /><path d="M 93.95794788825049 120.11202640906438 l -14.825858473265592 49.35046100835923 a72.52935164745318,72.52935164745318 0 0,0 -1.1893410300737006,-0.368460891329607 l 15.670840136210927 -49.088683529222976" fill="#3effb6" stroke="none" /><path d="M 93.27111125876986 119.89276391827306 l -9.176415887683891 27.128443029690253 a49.63841877197285,49.63841877197285 0 0,0 -0.8048378607937521,-0.2799643868651985 l 9.640759520522666 -26.966920210256465" fill="#afff20" stroke="none" /><path d="M 92.93061703081489 119.77432235084164 l -4.827171130540781 13.502456776506074 a35.33938353364402,35.33938353364402 0 0,0 -0.5694871791257589,-0.2091235803943418 l 5.058247461320659 -13.417602347103013" fill="#ff970d" stroke="none" /><path d="M 92.59220618246901 119.65005319985036 l -18.177691969410557 48.218487588584395 a72.53106859619001,72.53106859619001 0 0,0 -1.1612836710963654,-0.4492094711946631 l 19.00274790300045 -47.89933822925169" fill="#3effb6" stroke="none" /><path d="M 91.59046798132341 119.24265499422711 l -25.22859605602977 57.72796498268131 a84.0,84.0 0 0,0 -1.3163463885774596,-0.5887849963605802 l 26.215855847462862 -57.28637623541087" fill="#4dd2ff" stroke="none" /><line stroke="#e1ed5e" stroke-width="0.3" x1="58.13341422392154" x2="55.67067388415222" y1="173.97424548756322" y2="178.32567169271397" /><path d="M 57.64086615596768 174.84453072859336 a86.0,86.0 0 0,1 -31.369924170532247,-30.572349798747897" fill="none" id="id20" stroke="none" /><text fill="#e1ed5e" style="font-size:6.75px; font-family:Arial;" text-anchor="middle"><textPath startOffset="22.145653131862474" xlink:href="#id20">August</textPath></text><path d="M 82.576782715395 111.72311816256416 l -3.325525365948033 2.2375618796914436 a25.008216826097623,25.008216826097623 0 0,0 -0.23659626235795567,-0.3582368965785632 l 3.363446067226715 -2.1801451047738194" fill="#ff0000" stroke="none" /><path d="M 82.18462484594161 111.11811171558189 l -12.163133858553225 7.590695109227912 a35.3373804267844,35.3373804267844 0 0,0 -0.3167441451689223,-0.5173777568867982 l 12.291645968177551 -7.380780236216557" fill="#ff970d" stroke="none" /><line stroke="#e1ed5e" stroke-width="0.3" x1="26.387840678322732" x2="22.057713659400548" y1="142.50000000000003" y2="145.00000000000006" /><path d="M 25.521815274538298 143.00000000000003 a86.0,86.0 0 0,1 -11.493303480769221,-40.785679425670985" fill="none" id="id21" stroke="none" /><text fill="#e1ed5e" style="font-size:6.75px; font-family:Arial;" text-anchor="middle"><textPath startOffset="21.40746469413373" xlink:href="#id21">September</textPath></text><path d="M 81.63589988554817 110.18625677009913 l -12.528006815058955 6.949074195871733 a35.3262202599951,35.3262202599951 0 0,0 -0.2895987189653007,-0.532829024712646 l 12.645450883639585 -6.7329903376845" fill="#ff970d" stroke="none" /><path d="M 81.29705330413844 109.54985784667822 l -12.834860852891339 6.553571403490611 a35.411209222467505,35.411209222467505 0 0,0 -0.27178960836926913,-0.5437612813793379 l 12.945470374472345 -6.332278265947521" fill="#ff980e" stroke="none" /><path d="M 80.9802524753101 108.90220220490708 l -25.93425225599017 12.13853955296687 a49.634412558253615,49.634412558253615 0 0,0 -0.3545682362633972,-0.7747955856141499 l 26.138804957108622 -11.691554985138032" fill="#afff20" stroke="none" /><path d="M 80.5471966667186 107.91128576633889 l -13.255611918995482 5.3909419687312194 a35.30990924699534,35.30990924699534 0 0,0 -0.22353076772006933,-0.5634435557594982 l 13.346201361681675 -5.162597395758156" fill="#ff970d" stroke="none" /><path d="M 80.05021161711548 106.5578916946017 l -27.188539167222796 8.93741285727378 a49.61981849399068,49.61981849399068 0 0,0 -0.259051566841414,-0.8114753434975701 l 27.337955449841466 -8.469368480084817" fill="#afff20" stroke="none" /><path d="M 79.94057633289273 106.21446072829308 l -13.043572860909324 4.040932214501644 a34.65517946202273,34.65517946202273 0 0,0 -0.17116965451122051,-0.5697681099548338 l 13.111018835424174 -3.8164265009560867" fill="#ff8e0d" stroke="none" /><path d="M 79.73907114497094 105.5222062557868 l -8.754722344765645 2.3861385055868904 a30.074074074074076,30.074074074074076 0 0,0 -0.13148173119322246,-0.4992575492932703 l 8.7943935567636 -2.2355004519208173" fill="#ff4c07" stroke="none" /><path d="M 79.407916724674 104.11899336999214 l -28.07174658695343 5.615135512505843 a49.627830921429165,49.627830921429165 0 0,0 -0.1599285392593968,-0.8368136967732583 l 28.164001418494983 -5.13241925069927" fill="#afff20" stroke="none" /><path d="M 79.22317932658666 103.0534771498775 l -28.33236278378019 4.163881650719357 a49.63670182323604,49.63670182323604 0 0,0 -0.11665921024240847,-0.8440879315935103 l 28.399666510577813 -3.6769054109257606" fill="#afff20" stroke="none" /><path d="M 79.13060592940153 102.33845913500099 l -28.45661007642474 3.1886225138719677 a49.63469871637642,49.63469871637642 0 0,0 -0.0876114062528283,-0.8475608808353225 l 28.507153875159236 -2.6996571107537135" fill="#afff20" stroke="none" /><path d="M 79.06263194458094 101.62068470465958 l -28.58495956777166 2.2126566544647135 a49.67046848172676,49.67046848172676 0 0,0 -0.05850717320539781,-0.8506814578470219 l 28.618730702142123 -1.7216317724633483" fill="#afff20" stroke="none" /><line stroke="#e1ed5e" stroke-width="0.3" x1="15.003131293944662" x2="10.003315487706104" y1="100.72959589197737" y2="100.7725132973878" /><path d="M 14.003168132696942 100.73817937305945 a86.0,86.0 0 0,1 10.791469493833604,-42.45332614584628" fill="none" id="id22" stroke="none" /><text fill="#e1ed5e" style="font-size:6.75px; font-family:Arial;" text-anchor="middle"><textPath startOffset="22.145653131862435" xlink:href="#id22">October</textPath></text><path d="M 79.00696218219943 99.45929381324524 l -28.645801937684485 -0.7378142442597808 a49.65530210121821,49.65530210121821 0 0,0 0.029261900274691627,-0.8519282989640043 l 28.628915350412942 1.2294488077879238" fill="#afff20" stroke="none" /><path d="M 79.13060592940154 97.66154086499901 l -28.4665633208102 -3.189737795665854 a49.64471425067452,49.64471425067452 0 0,0 0.1021686180070984,-0.8461027208402667 l 28.40761261654343 3.677934193429557" fill="#afff20" stroke="none" /><path d="M 79.34024301695615 96.23510406497455 l -14.110152886751429 -2.571339889889221 a35.34253127299485,35.34253127299485 0 0,0 0.11389333958939522,-0.5959380794760638 l 14.063933254879874 2.8131805343985996" fill="#ff970d" stroke="none" /><path d="M 79.56144815229197 95.17655741523228 l -10.200894428446873 -2.4073833095179884 a31.481113563895022,31.481113563895022 0 0,0 0.12864153442567366,-0.5249013594880106 l 10.1580653675049 2.582140493614117" fill="#ff6008" stroke="none" /><path d="M 79.83685265289637 94.1308016681162 l -27.497174166064163 -8.004026651631083 a49.63841877197285,49.63841877197285 0 0,0 0.24517521258237782,-0.8161085437704079 l 27.355722633478155 8.474872798992214" fill="#afff20" stroke="none" /><path d="M 80.28708602549916 92.7611449362534 l -26.875116919233005 -9.868915191900138 a49.62983402828877,49.62983402828877 0 0,0 0.30054247884669144,-0.7972246317353238 l 26.70174375657188 10.328808103829607" fill="#afff20" stroke="none" /><path d="M 81.29705330413844 90.45014215332179 l -25.50355484499585 -13.0222968238777 a49.63584334886763,49.63584334886763 0 0,0 0.3939949798038157,-0.7555373239591773 l 25.276251796217093 13.458180390941363" fill="#afff20" stroke="none" /><line stroke="#e1ed5e" stroke-width="0.3" x1="26.387840678322718" x2="22.05771365940052" y1="57.49999999999999" y2="54.99999999999999" /><path d="M 25.521815274538284 56.99999999999999 a86.0,86.0 0 0,1 29.574782752854787,-30.34633250058573" fill="none" id="id23" stroke="none" /><text fill="#e1ed5e" style="font-size:6.75px; font-family:Arial;" text-anchor="middle"><textPath startOffset="21.40746469413373" xlink:href="#id23">November</textPath></text><path d="M 81.81346652052679 89.5 l -24.80110254033795 -14.318923227863632 a49.63784645572726,49.63784645572726 0 0,0 0.43238414710923184,-0.7342828099949853 l 24.55164468309894 14.74255720615219" fill="#afff20" stroke="none" /><path d="M 82.98947788004972 87.6856937992154 l -23.20200355164015 -16.79646128389524 a49.64356961818331,49.64356961818331 0 0,0 0.505650441999024,-0.6860119375508923 l 22.910251090057308 17.192279530714995" fill="#afff20" stroke="none" /><path d="M 83.64595745247003 86.82634096563983 l -22.31928129759514 -17.978833114317556 a49.65988063118306,49.65988063118306 0 0,0 0.540472555927945,-0.659288638623764 l 22.007361922428565 18.359324034639812" fill="#afff20" stroke="none" /><path d="M 84.34580500576568 86.00192230759919 l -21.38015847814448 -19.11826954775627 a49.68134249039326,49.68134249039326 0 0,0 0.5739432339729574,-0.6308641541923152 l 21.04881754332966 19.482471277506242" fill="#afff20" stroke="none" /><path d="M 84.83555147118756 85.47280134310135 l -12.775902204656028 -12.23902530946056 a38.69229825852342,38.69229825852342 0 0,0 0.4635949016978244,-0.4756892096237154 l 12.5639205018074 12.456537211152007" fill="#ffc512" stroke="none" /><path d="M 85.86807049272753 84.46653392183569 l -19.25351669250426 -21.16298756475383 a49.610661434061,49.610661434061 0 0,0 0.6348628461788652,-0.5676982718117155 l 18.887388819502004 21.490381366448947" fill="#b0ff20" stroke="none" /><path d="M 88.4268655584334 82.4767994020092 l -20.522734904310234 -31.074036369609065 a58.23947346905405,58.23947346905405 0 0,0 0.838965594960695,-0.5438073625587657 l 19.986283677092512 31.421757573871737" fill="#4fff2b" stroke="none" /><line stroke="#e1ed5e" stroke-width="0.3" x1="56.869717070023135" x2="54.33264160355391" y1="26.7553504044142" y2="22.446841604673864" /><path d="M 56.362301976729285 25.89364864446614 a86.0,86.0 0 0,1 42.16139366436587,-11.88097634709845" fill="none" id="id24" stroke="none" /><text fill="#e1ed5e" style="font-size:6.75px; font-family:Arial;" text-anchor="middle"><textPath startOffset="22.145653131862474" xlink:href="#id24">December</textPath></text><path d="M 89.97174638481275 81.54914285379989 l -12.604803936970102 -23.191419535369754 a47.395511405445184,47.395511405445184 0 0,0 0.7181800862251536,-0.3823904442606627 l 12.204835034958387 23.40438044735299" fill="#caff1d" stroke="none" /><path d="M 90.61103034731259 81.2157712731953 l -27.627771818602028 -55.274050747841756 a82.79412967050936,82.79412967050936 0 0,0 1.2767633483363336,-0.6245289330985887 l 26.67484822100364 55.740173431037555" fill="#4bdeff" stroke="none" /><path d="M 91.92203290615298 80.6158196554323 l -9.367386145673317 -22.47831667242677 a45.352056250511,45.352056250511 0 0,0 0.7211960409856347,-0.29330415138819993 l 8.980135643497242 22.635808080394263" fill="#e3ff1b" stroke="none" /><path d="M 92.93061703081487 80.22567764915836 l -10.067411704461326 -28.160342302915517 a50.90581309786607,50.90581309786607 0 0,0 0.8253874061513912,-0.28711258546104157 l 9.58251852626493 28.329013320945144" fill="#a0ff22" stroke="none" /><path d="M 95.70440661134978 79.44403061299748 l -8.810631625283005 -42.162061811530904 a64.07280680238739,64.07280680238739 0 0,0 1.078569637454223,-0.21574413459525843 l 8.085565502297804 42.307095342789026" fill="#33ff52" stroke="none" /><path d="M 97.84075906011542 79.11130261209362 l -3.8303826789441286 -37.05547777573126 a58.252922900825766,58.252922900825766 0 0,0 0.9955714030097806,-0.09428164695671189 l 3.1937117125493324 37.115771178193164" fill="#4fff2b" stroke="none" /><path d="M 98.9189461498227 79.02784411241856 l -1.1126225199634914 -21.584579647795742 a42.613236857166214,42.613236857166214 0 0,0 0.7308661987317591,-0.031386539297246545 l 0.7419305606309122 21.600498755518817" fill="#fff817" stroke="none" /></svg>