<?xml version="1.0" encoding="utf-8" ?>
<svg baseProfile="full" height="200mm" version="1.1" viewBox="0,0,200,200" width="200mm" xmlns="http://www.w3.org/2000/svg" xmlns:ev="http://www.w3.org/2001/xml-events" xmlns:xlink="http://www.w3.org/1999/xlink"><defs /><rect fill="#1a1a1a" height="200" width="200" x="0" y="0" /><text alignment-baseline="middle" fill="#e1ed5e" style="dominant-baseline: central; font-size:9.0px; font-family:Arial;" text-anchor="middle" x="100.0" y="100.0">2024</text><line stroke="#e1ed5e" stroke-width="0.3" x1="100.0" x2="100.0" y1="15.0" y2="10.0" /><path d="M 100.0 14.0 a86.0,86.0 0 0,1 42.35913384403234,11.155469271406648" fill="none" id="id61" stroke="none" /><text fill="#e1ed5e" style="font-size:6.75px; font-family:Arial;" text-anchor="middle"><textPath startOffset="22.145653131862478" xlink:href="#id61">January</textPath></text><path d="M 100.36049292484886 79.00309439819443 l 0.018876653659529515 -1.0994704407397133 a22.0996324741084,22.0996324741084 0 0,0 0.37925777655231185,0.009768335004037917 l -0.037747744282582735 1.0989843883856305" fill="#ff0701" stroke="none" /><path d="M 100.72087961077811 79.0123766808444 l 0.22737632497594631 -6.61981361234244 a27.62371740454813,27.62371740454813 0 0,0 0.47377863836002687,0.020346093275191983 l -0.34098072393680945 6.614934950641417" fill="#ff5507" stroke="none" /><path d="M 101.44090949804482 79.04949213459386 l 0.3086898456152516 -4.488282607137198 a25.49888543778526,25.49888543778526 0 0,0 0.436432858334015,0.0337826634293569 l -0.3856916987245001 4.482322176712788" fill="#ff3705" stroke="none" /><path d="M 103.23170211078529 79.25015418208739 l 1.0130436736836834 -6.504467093546648 a27.582883080825734,27.582883080825734 0 0,0 0.4672310496431688,0.076882691416517 l -1.1245522263799228 6.486118403634463" fill="#ff5407" stroke="none" /><path d="M 104.64783097203109 79.52079915486377 l 3.3524596985949335 -14.771556002336348 a36.14720610412568,36.14720610412568 0 0,0 0.6039472549559552,0.14252990770648724 l -3.605539107290774 14.711829950983633" fill="#ffc512" stroke="none" /><path d="M 109.3889696526874 81.21577127319529 l 4.811855151766589 -9.626933637512169 a31.76251835132679,31.76251835132679 0 0,0 0.48562285773494906,0.2479624913593198 l -4.976405231215117 9.542913194480015" fill="#ff8c0c" stroke="none" /><line stroke="#e1ed5e" stroke-width="0.3" x1="143.13028292997686" x2="145.6673583964461" y1="26.7553504044142" y2="22.446841604673864" /><path d="M 143.63769802327073 25.89364864446614 a86.0,86.0 0 0,1 29.32050498858742,28.57503671076993" fill="none" id="id62" stroke="none" /><text fill="#e1ed5e" style="font-size:6.75px; font-family:Arial;" text-anchor="middle"><textPath startOffset="20.669276256404974" xlink:href="#id62">February</textPath></text><path d="M 117.01052211995028 87.68569379921539 l 2.2214981818386077 -1.6081933665964898 a23.742506167044514,23.742506167044514 0 0,0 0.236164336254995,0.33219471461274874 l -2.2487776166235633 1.569821425274237" fill="#ff1e03" stroke="none" /><line stroke="#e1ed5e" stroke-width="0.3" x1="172.87174338648825" x2="177.1583165268699" y1="56.24261187166439" y2="53.66864786411523" /><path d="M 173.72905801456457 55.72781907015455 a86.0,86.0 0 0,1 12.242430191666344,42.057860355516425" fill="none" id="id63" stroke="none" /><text fill="#e1ed5e" style="font-size:6.75px; font-family:Arial;" text-anchor="middle"><textPath startOffset="22.145653131862474" xlink:href="#id63">March</textPath></text><path d="M 118.36410011445183 89.81374322990088 l 5.798202021874927 -3.216164921320942 a27.630449719861378,27.630449719861378 0 0,0 0.2265100195949346,0.4167529236994806 l -5.852557391085203 3.1161571641468577" fill="#ff5507" stroke="none" /><path d="M 118.70294669586156 90.45014215332178 l 1.9147690137650113 -0.9776947016977948 a23.149936581809467,23.149936581809467 0 0,0 0.17768137082851593,0.3554817656887138 l -1.9312702978052643 0.9446810798453305" fill="#ff1602" stroke="none" /><path d="M 119.31412917781788 91.75594674310238 l 6.368460319020105 -2.718317018130899 a27.92434359676018,27.92434359676018 0 0,0 0.18439927453113245,0.44249113067587653 l -6.414185438087721 2.6085933780137447" fill="#ff5908" stroke="none" /><path d="M 119.4528033332814 92.08871423366111 l 10.165818324943643 -4.13434981269341 a31.97436606777257,31.97436606777257 0 0,0 0.20241498057942264,0.5102179783119849 l -10.23529198048919 3.95923081716786" fill="#ff8f0d" stroke="none" /><path d="M 120.16314734710363 94.1308016681162 l 6.336684231937986 -1.8445164280916289 a27.5996824096915,27.5996824096915 0 0,0 0.1285113602039175,0.456041480902683 l -6.3674140842164855 1.7354670232859326" fill="#ff5407" stroke="none" /><path d="M 120.77682067341334 96.94652285012252 l 26.642943686383262 -3.9155952217437426 a47.92913541531425,47.92913541531425 0 0,0 0.11264598331016756,0.8150502206985745 l -26.706234186248643 3.4576566928450827" fill="#acff20" stroke="none" /><line stroke="#e1ed5e" stroke-width="0.3" x1="184.99686870605535" x2="189.99668451229388" y1="99.2704041080226" y2="99.22748670261217" /><path d="M 185.99683186730306 99.26182062694052 a86.0,86.0 0 0,1 -10.086455211305974,41.156179273409016" fill="none" id="id64" stroke="none" /><text fill="#e1ed5e" style="font-size:6.75px; font-family:Arial;" text-anchor="middle"><textPath startOffset="21.40746469413373" xlink:href="#id64">April</textPath></text><path d="M 120.16314734710363 105.8691983318838 l 2.6562941471066743 0.7732085129770515 a23.76654116190115,23.76654116190115 0 0,0 -0.11738824333798087,0.39074728361512867 l -2.6426295837650637 -0.8186934001829037" fill="#ff1f03" stroke="none" /><line stroke="#e1ed5e" stroke-width="0.3" x1="174.33088141563837" x2="178.70328620479359" y1="141.23008692659167" y2="143.65538615756765" /><path d="M 175.20536237346943 141.71514677278685 a86.0,86.0 0 0,1 -30.301960400862466,31.631185727798858" fill="none" id="id65" stroke="none" /><text fill="#e1ed5e" style="font-size:6.75px; font-family:Arial;" text-anchor="middle"><textPath startOffset="22.145653131862474" xlink:href="#id65">May</textPath></text><path d="M 117.62189284568427 111.42229804090321 l 5.31053795033645 3.442226539308796 a27.328565150955267,27.328565150955267 0 0,0 -0.25854847689797683,0.39147534731091715 l -5.250665034517746 -3.5328817649587743" fill="#ff5107" stroke="none" /><path d="M 114.65682725009322 115.03919595460226 l 3.5795043478201056 3.6728867979852167 a26.128640054329914,26.128640054329914 0 0,0 -0.32390494824113064,0.3102936133886489 l -3.5159269137136633 -3.733792541679446" fill="#ff4006" stroke="none" /><path d="M 112.7482090630111 116.68781488649013 l 1.6041285268853398 2.099855734910404 a23.642465219866374,23.642465219866374 0 0,0 -0.3246301990918872,0.24360855343578008 l -1.5678453388826863 -2.1270833156101987" fill="#ff1d02" stroke="none" /><line stroke="#e1ed5e" stroke-width="0.3" x1="143.1302829299769" x2="145.66735839644613" y1="173.24464959558577" y2="177.55315839532614" /><path d="M 143.63769802327073 174.10635135553383 a86.0,86.0 0 0,1 -40.68552437913181,11.842963189579606" fill="none" id="id66" stroke="none" /><text fill="#e1ed5e" style="font-size:6.75px; font-family:Arial;" text-anchor="middle"><textPath startOffset="21.407464694133747" xlink:href="#id66">June</textPath></text><path d="M 110.65571695917076 118.09573695890943 l 1.4059557074812354 2.3876201625796325 a23.770819642660967,23.770819642660967 0 0,0 -0.35340137797955923,0.20403638070848398 l -1.3647618616412776 -2.411403440564288" fill="#ff1f03" stroke="none" /><path d="M 109.3889696526874 118.78422872680471 l 0.3112653153641385 0.6227391390968479 a21.696196905991272,21.696196905991272 0 0,0 -0.334575761809394,0.16365777090620476 l -0.30052930429267505 -0.627990660100276" fill="#ff0100" stroke="none" /><path d="M 106.0420521117495 120.11202640906438 l 0.8820410083778403 2.936027648599065 a24.065657302080314,24.065657302080314 0 0,0 -0.39667077717002736,0.11546508209234464 l -0.8315102188262061 -2.950736424993928" fill="#ff2303" stroke="none" /><path d="M 104.9986988182912 120.39639698878246 l 1.567020116123626 6.39397682071021 a27.58319767499925,27.58319767499925 0 0,0 -0.46085986481876956,0.10876167324087688 l -1.4570280975649772 -6.419934637597312" fill="#ff5407" stroke="none" /><path d="M 104.29559338865022 120.5559693870025 l 0.4305331823062059 2.060257132101612 a23.104760858492543,23.104760858492543 0 0,0 -0.38893400783065996,0.0777976942983005 l -0.39510268894458733 -2.067344223062774" fill="#ff1502" stroke="none" /><path d="M 101.08105385017728 120.97215588758144 l 0.17601606741358852 3.414664684753184 a24.419198234277783,24.419198234277783 0 0,0 -0.4188174357508841,0.01798582275165533 l -0.11737287106187487 -3.4171830759306703" fill="#ff2803" stroke="none" /><line stroke="#e1ed5e" stroke-width="0.3" x1="101.45913802915013" x2="101.54496967792366" y1="184.9874750549273" y2="189.98673829345242" /><path d="M 101.47630435890484 185.9873277026323 a86.0,86.0 0 0,1 -42.54439059252881,-10.42667462771756" fill="none" id="id67" stroke="none" /><text fill="#e1ed5e" style="font-size:6.75px; font-family:Arial;" text-anchor="middle"><textPath startOffset="22.145653131862474" xlink:href="#id67">July</textPath></text><path d="M 98.55909050195518 120.95050786540614 l -0.10890897913844147 1.5835126544375768 a22.587253443058454,22.587253443058454 0 0,0 -0.38659805763357186,-0.02992513467783567 l 0.13607603154724945 -1.5814097527646875" fill="#ff0e01" stroke="none" /><path d="M 97.48249496171623 120.84855314841334 l -0.3351561052375464 2.775573342178383 a23.795735501203445,23.795735501203445 0 0,0 -0.405119199338134,-0.052450791123250136 l 0.38275312646647447 -2.769410954854736" fill="#ff1f03" stroke="none" /><path d="M 96.05791012581884 120.62667999033965 l -0.9016070448186653 4.717589041364343 a25.80297216590598,25.80297216590598 0 0,0 -0.4343543497330776,-0.0868830347496478 l 0.9824578800827011 -4.701416609951834" fill="#ff3b05" stroke="none" /><path d="M 95.70440661134978 120.55596938700252 l -0.8925210787567488 4.27103645811858 a25.36329534899979,25.36329534899979 0 0,0 -0.4254240885860373,-0.09271920004126413 l 0.9657075839619226 -4.255085799943597" fill="#ff3505" stroke="none" /><path d="M 95.00130118170881 120.39639698878247 l -1.0002539663150938 4.081377520068553 a25.20216021332481,25.20216021332481 0 0,0 -0.41930958942007857,-0.10658685793319055 l 1.0701688489605512 -4.0636054303000995" fill="#ff3304" stroke="none" /><path d="M 93.61358852112213 120.00534299687104 l -0.6263695225990492 1.9620936082530747 a23.059648054010328,23.059648054010328 0 0,0 -0.37606691125447594,-0.12362066336734044 l 0.6599591715012687 -1.9510520234837128" fill="#ff1402" stroke="none" /><path d="M 92.93061703081489 119.77432235084164 l -10.009168603957423 27.997425984886576 a50.7327986896903,50.7327986896903 0 0,0 -0.8175490211209001,-0.30021532478949325 l 10.488306776732443 -27.821479811088363" fill="#8eff24" stroke="none" /><path d="M 91.26138138417905 119.09545874513695 l -6.295507549639257 13.756820154181884 a36.12889672322704,36.12889672322704 0 0,0 -0.5617377397859511,-0.2629216260210862 l 6.530734003296699 -13.646722296590271" fill="#ffc512" stroke="none" /><path d="M 90.93487009805054 118.94263497670748 l -6.1405483742439575 12.831384400250409 a35.22500474388039,35.22500474388039 0 0,0 -0.5432027026666976,-0.2657076621088423 l 6.359911326172725 -12.724082988044344" fill="#ffba11" stroke="none" /><path d="M 90.28995756902619 118.62028667847754 l -14.316060101533557 27.45293288797041 a51.961477693775024,51.961477693775024 0 0,0 -0.7873677785912524,-0.4192289934333453 l 14.785216695911371 -27.203133426814492" fill="#80ff25" stroke="none" /><line stroke="#e1ed5e" stroke-width="0.3" x1="58.13341422392154" x2="55.67067388415222" y1="173.97424548756322" y2="178.32567169271397" /><path d="M 57.64086615596768 174.84453072859336 a86.0,86.0 0 0,1 -31.369924170532247,-30.572349798747897" fill="none" id="id68" stroke="none" /><text fill="#e1ed5e" style="font-size:6.75px; font-family:Arial;" text-anchor="middle"><textPath startOffset="22.145653131862474" xlink:href="#id68">August</textPath></text><path d="M 88.72937992617639 117.7192867562869 l -4.184500089808368 6.57872916816974 a28.796776158755204,28.796776158755204 0 0,0 -0.4148304063191547,-0.2688880575372945 l 4.296816128384532 -6.505927268928551" fill="#ff6509" stroke="none" /><path d="M 87.2517909369889 116.68781488649013 l -17.88337085851543 23.409906517713456 a50.45910175873124,50.45910175873124 0 0,0 -0.6838170744368557,-0.5317402931126957 l 18.282597877587513 -23.09946517297997" fill="#91ff24" stroke="none" /><path d="M 86.96720088162412 116.46651593811092 l -4.175210116147194 5.275241588398497 a27.727596400643172,27.727596400643172 0 0,0 -0.37069053949432307,-0.29860205881014956 l 4.265151425996779 -5.202791235794937" fill="#ff5608" stroke="none" /><path d="M 86.13680546590413 115.77377054828092 l -5.802662573686725 6.6023648287787005 a29.789887045711033,29.789887045711033 0 0,0 -0.3812183093411412,-0.34088776292159445 l 5.915145909851237 -6.501781535973723" fill="#ff720a" stroke="none" /><path d="M 85.86807049272751 115.53346607816431 l -20.29018429243734 22.302466854514318 a51.15114602163209,51.15114602163209 0 0,0 -0.644431923833136,-0.5964765678899595 l 20.67004598758444 -21.95087254049198" fill="#89ff24" stroke="none" /><path d="M 85.34317274990678 115.03919595460226 l -24.25110682541489 24.88377200878093 a55.74648603301741,55.74648603301741 0 0,0 -0.6795976594673643,-0.6737891673661266 l 24.674696405012217 -24.463802831186143" fill="#59ff2a" stroke="none" /><path d="M 85.08716467003676 114.78537596483092 l -2.282522124952329 2.2630135060673364 a24.21420867081465,24.21420867081465 0 0,0 -0.29012450006026097,-0.2976932956352847 l 2.3210334261633996 -2.2234975183643146" fill="#ff2503" stroke="none" /><path d="M 84.83555147118756 114.52719865689866 l -10.746586947706303 10.29498719827101 a35.882066134686255,35.882066134686255 0 0,0 -0.42228777707988885,-0.4484549853278574 l 10.921730558522446 -10.108990752998663" fill="#ffc212" stroke="none" /><path d="M 83.4222238831116 112.89097897827486 l -16.650425680552186 12.947471718396764 a42.09202928222592,42.09202928222592 0 0,0 -0.4386551132171549,-0.5742136242195537 l 16.870232771123632 -12.659737180936341" fill="#f0ff19" stroke="none" /><path d="M 83.20337586046588 112.60449989151573 l -4.3139556406909385 3.2372727372704544 a26.393528348430525,26.393528348430525 0 0,0 -0.26883440046601,-0.3647254953736907 l 4.368892060740779 -3.162740932627884" fill="#ff4406" stroke="none" /><path d="M 82.98947788004972 112.3143062007846 l -24.385157419030048 17.652973441661068 a51.104208570943484,51.104208570943484 0 0,0 -0.5083284558117082,-0.7150276328157404 l 24.68460097337172 -17.231768582135825" fill="#8aff24" stroke="none" /><path d="M 82.37810715431573 111.42229804090323 l -3.6439826636342234 2.361985537218165 a25.342532133547724,25.342532133547724 0 0,0 -0.23349198177351782,-0.3670881773353123 l 3.683992337033631 -2.2990836852041805" fill="#ff3505" stroke="none" /><path d="M 81.99639281039703 110.81064883170644 l -9.595606716211506 5.761886128910486 a32.19263150535809,32.19263150535809 0 0,0 -0.2804227924968872,-0.4762192079378791 l 9.693103218838163 -5.596315752679049" fill="#ff920d" stroke="none" /><line stroke="#e1ed5e" stroke-width="0.3" x1="26.387840678322732" x2="22.057713659400548" y1="142.50000000000003" y2="145.00000000000006" /><path d="M 25.521815274538298 143.00000000000003 a86.0,86.0 0 0,1 -11.493303480769221,-40.785679425670985" fill="none" id="id69" stroke="none" /><text fill="#e1ed5e" style="font-size:6.75px; font-family:Arial;" text-anchor="middle"><textPath startOffset="21.40746469413373" xlink:href="#id69">September</textPath></text><path d="M 81.63589988554817 110.18625677009913 l -2.8536258876127674 1.5828581763258032 a24.263222443048466,24.263222443048466 0 0,0 -0.1989060274708808,-0.36596468729364406 l 2.8803772646989776 -1.533638655557572" fill="#ff2603" stroke="none" /><path d="M 81.29705330413844 109.54985784667822 l -26.863923476703132 13.716910740237712 a51.16328935672982,51.16328935672982 0 0,0 -0.39269063899479645,-0.7856443310200709 l 27.09543402890967 -13.253734553053887" fill="#89ff24" stroke="none" /><path d="M 80.83023694016515 108.57439118712176 l -57.50928917950453 25.7231735613653 a84.0,84.0 0 0,0 -0.577464471932128,-1.3213517208966026 l 57.942387533453626 -24.73215977069285" fill="#4dd2ff" stroke="none" /><path d="M 79.94057633289273 106.21446072829308 l -4.44354828918967 1.376622618660974 a25.651904043783517,25.651904043783517 0 0,0 -0.12670047077785712,-0.42174466012464323 l 4.466525079971157 -1.3001403549456072" fill="#ff3905" stroke="none" /><path d="M 79.64726062577567 105.17358676015961 l -5.746408318059791 1.4607145232958691 a26.929156388259145,26.929156388259145 0 0,0 -0.11004083421457488,-0.4490041551222155 l 5.770636678790659 -1.361854543565554" fill="#ff4b07" stroke="none" /><path d="M 79.34024301695615 103.76489593502545 l -5.763826457569066 1.0503611837304778 a26.858750212226226,26.858750212226226 0 0,0 -0.0787667158928782,-0.4543054858299174 l 5.781007990954178 -0.9512626649799678" fill="#ff4a06" stroke="none" /><path d="M 79.22317932658666 103.0534771498775 l -29.223399540456505 4.294833369414876 a50.53730987026735,50.53730987026735 0 0,0 -0.11877587431647972,-0.8594030584184612 l 29.292819931328197 -3.7925420027963295" fill="#90ff24" stroke="none" /><path d="M 79.03789590574601 101.26102812881392 l -21.43086186949837 1.2892274325443784 a42.469605209280026,42.469605209280026 0 0,0 -0.03753182709957612,-0.7281074190235876 l 21.449835286054515 -0.92114822014406" fill="#ebff1a" stroke="none" /><line stroke="#e1ed5e" stroke-width="0.3" x1="15.003131293944662" x2="10.003315487706104" y1="100.72959589197737" y2="100.7725132973878" /><path d="M 14.003168132696942 100.73817937305945 a86.0,86.0 0 0,1 10.791469493833604,-42.45332614584628" fill="none" id="id70" stroke="none" /><text fill="#e1ed5e" style="font-size:6.75px; font-family:Arial;" text-anchor="middle"><textPath startOffset="22.145653131862435" xlink:href="#id70">October</textPath></text><path d="M 79.00077361379809 100.18025310272382 l -5.664436928690421 0.048622378405841556 a26.664645607166754,26.664645607166754 0 0,0 0.0,-0.4577509622593161 l 5.664436928690421 0.048622378405839474" fill="#ff4706" stroke="none" /><path d="M 79.03789590574601 98.7389718711861 l -3.9208088597591777 -0.23586612477582378 a24.92789701285342,24.92789701285342 0 0,0 0.02936273469443969,-0.4269277182226901 l 3.9161821638996743 0.30313726715283884" fill="#ff2f04" stroke="none" /><path d="M 79.0935383218832 98.0201363427161 l -1.3308819361272395 -0.1260359030639809 a22.33683648093959,22.33683648093959 0 0,0 0.039427289898891625,-0.38142326421766637 l 1.328522253746684 0.14886368956456003" fill="#ff0a01" stroke="none" /><path d="M 79.17382384314186 97.30363454192245 l -1.1497461930098227 -0.14885766340581782 a22.15934244824177,22.15934244824177 0 0,0 0.05208024092150838,-0.37682667956503274 l 1.1470214355331063 0.16857265117091758" fill="#ff0701" stroke="none" /><path d="M 79.22317932658666 96.9465228501225 l -1.370624007791593 -0.20143452911544862 a22.38534690249578,22.38534690249578 0 0,0 0.05913836400560575,-0.37971071991586697 l 1.3669641516477196 0.22493343096276558" fill="#ff0b01" stroke="none" /><path d="M 79.34024301695615 96.23510406497455 l -2.9082823820012127 -0.529985929984027 a23.95617852969669,23.95617852969669 0 0,0 0.07720016304071933,-0.40394387471283716 l 2.898755926678334 0.5798323697301787" fill="#ff2103" stroke="none" /><path d="M 79.407916724674 95.88100663000787 l -1.5066941615318319 -0.3013810297373722 a22.536540862287648,22.536540862287648 0 0,0 0.07913791015644236,-0.37870354834454534 l 1.5012985405510229 0.3272010293673266" fill="#ff0d01" stroke="none" /><path d="M 79.56144815229197 95.17655741523228 l -1.4165876615956312 -0.33431083096834546 a22.455501403189885,22.455501403189885 0 0,0 0.09176010089164098,-0.37441252484910376 l 1.4106400341876921 0.35857918042556686" fill="#ff0c01" stroke="none" /><path d="M 79.64726062577567 94.8264132398404 l -1.3284395947252372 -0.337684150156529 a22.37068681400993,22.37068681400993 0 0,0 0.09780306529281572,-0.3713741692349781 l 1.3224470486276958 0.36043882376429165" fill="#ff0b01" stroke="none" /><path d="M 80.05021161711548 93.44210830539832 l -2.4501844382482667 -0.8054242916990448 a23.57916887215492,23.57916887215492 0 0,0 0.12970179771147572,-0.3834403184348512 l 2.435997218964426 0.8473662846080577" fill="#ff1c02" stroke="none" /><path d="M 80.41425534168474 92.42381321644754 l -1.272685126635264 -0.4923019473729454 a22.364583687043712,22.364583687043712 0 0,0 0.14157987567554442,-0.35687377352238325 l 1.264046575993588 0.5140767381089114" fill="#ff0a01" stroke="none" /><path d="M 80.5471966667186 92.08871423366112 l -1.2333313166082784 -0.5015851095132187 a22.33142546115511,22.33142546115511 0 0,0 0.1474662650534412,-0.3538653529194311 l 1.2245392070183587 0.5226829718739137" fill="#ff0a01" stroke="none" /><path d="M 80.9802524753101 91.09779779509293 l -2.3797811115018876 -1.1138577223755084 a23.627553456041706,23.627553456041706 0 0,0 0.17509225721053437,-0.3658754757473145 l 2.360309596331448 1.15454570018791" fill="#ff1d02" stroke="none" /><path d="M 81.29705330413844 90.45014215332179 l -0.9429831127783918 -0.48149389640534074 a22.058798150386004,22.058798150386004 0 0,0 0.1750963647514222,-0.3357703667319376 l 0.9345786790520296 0.4976105062417649" fill="#ff0601" stroke="none" /><line stroke="#e1ed5e" stroke-width="0.3" x1="26.387840678322718" x2="22.05771365940052" y1="57.49999999999999" y2="54.99999999999999" /><path d="M 25.521815274538284 56.99999999999999 a86.0,86.0 0 0,1 29.574782752854787,-30.34633250058573" fill="none" id="id71" stroke="none" /><text fill="#e1ed5e" style="font-size:6.75px; font-family:Arial;" text-anchor="middle"><textPath startOffset="21.40746469413373" xlink:href="#id71">November</textPath></text><path d="M 81.81346652052679 89.5 l -1.076654261065959 -0.6216066274505893 a22.24321325490118,22.24321325490118 0 0,0 0.1937556416910089,-0.32903943862056984 l 1.0658249092451708 0.6399972343647319" fill="#ff0901" stroke="none" /><path d="M 82.37810715431573 88.57770195909679 l -0.8546870578531806 -0.5539978248643488 a22.018530096175933,22.018530096175933 0 0,0 0.20831161052374134,-0.31541032868222335 l 0.8450510084087102 0.5685880318856331" fill="#ff0500" stroke="none" /><path d="M 82.78059297857968 87.97951657250589 l -0.9473262043783105 -0.6613072637167458 a22.15531564282076,22.15531564282076 0 0,0 0.22037671071847514,-0.30998744215712104 l 0.9358343951298631 0.6774719325833871" fill="#ff0701" stroke="none" /><path d="M 83.2033758604659 87.39550010848427 l -1.6357622797533666 -1.227506510023551 a23.04511380319388,23.04511380319388 0 0,0 0.24016083749875963,-0.31437824555232735 l 1.6144494649003003 1.2554056688167625" fill="#ff1402" stroke="none" /><path d="M 83.64595745247003 86.82634096563983 l -1.5243073723230345 -1.2278741190861113 a22.957342028782872,22.957342028782872 0 0,0 0.24985588297642908,-0.30478355123295037 l 1.5030046701079756 1.2538599520175546" fill="#ff1302" stroke="none" /><path d="M 84.34580500576568 86.00192230759919 l -0.8766468015377158 -0.7839029756074565 a22.176015939438123,22.176015939438123 0 0,0 0.25618821205119613,-0.28159572261345694 l 0.8630608886446538 0.7988362737785711" fill="#ff0801" stroke="none" /><path d="M 84.58840730492382 85.73525988315684 l -1.6564895575003138 -1.5332220044691303 a23.257150276143776,23.257150276143776 0 0,0 0.273708048317514,-0.29066846225370496 l 1.629925675446528 1.5614319266673462" fill="#ff1702" stroke="none" /><path d="M 85.34317274990677 84.96080404539775 l -1.568733852895007 -1.6096591309798045 a23.247649532103587,23.247649532103587 0 0,0 0.28819061010320185,-0.2760800853435267 l 1.5408707569265048 1.6363513466288997" fill="#ff1702" stroke="none" /><path d="M 85.86807049272753 84.46653392183569 l -0.7734461234288168 -0.8501527774665514 a22.149338353523955,22.149338353523955 0 0,0 0.28344294515780366,-0.25345642935603996 l 0.7587381514476212 0.8633047367059923" fill="#ff0701" stroke="none" /><path d="M 87.25179093698888 83.31218511350988 l -1.6571818752315417 -2.1693042709309385 a23.729859481269163,23.729859481269163 0 0,0 0.325830193094848,-0.24450905130693298 l 1.6196986932259414 2.1974323495018724" fill="#ff1e03" stroke="none" /><path d="M 87.83215693770416 82.88440491214696 l -0.7737163058987051 -1.0883288793940973 a22.33532642890671,22.33532642890671 0 0,0 0.314401530124817,-0.2194766856804603 l 0.7549196846001228 1.1014503808796843" fill="#ff0a01" stroke="none" /><path d="M 88.4268655584334 82.4767994020092 l -0.6244908606675822 -0.9455587575122523 a22.133168213005224,22.133168213005224 0 0,0 0.3188381613383888,-0.2066670440861624 l 0.6081670670721674 0.956139643302321" fill="#ff0701" stroke="none" /><line stroke="#e1ed5e" stroke-width="0.3" x1="56.869717070023135" x2="54.33264160355391" y1="26.7553504044142" y2="22.446841604673864" /><path d="M 56.362301976729285 25.89364864446614 a86.0,86.0 0 0,1 42.16139366436587,-11.88097634709845" fill="none" id="id72" stroke="none" /><text fill="#e1ed5e" style="font-size:6.75px; font-family:Arial;" text-anchor="middle"><textPath startOffset="22.145653131862474" xlink:href="#id72">December</textPath></text><path d="M 89.34428304082924 81.90426304109057 l -1.2540519594410027 -2.1296543890759794 a23.471451827142985,23.471451827142985 0 0,0 0.34895066908027733,-0.20146676272739705 l 1.2173088225003257 2.15086804907955" fill="#ff1a02" stroke="none" /><path d="M 89.97174638481275 81.54914285379989 l -0.30845225143618393 -0.5675174009414555 a21.645924757063387,21.645924757063387 0 0,0 0.3279988262066723,-0.17464090034769397 l 0.29866460944294976 0.572728769011725" fill="#ff0000" stroke="none" /><path d="M 90.28995756902619 81.37971332152246 l -0.5501410251866548 -1.054967954608587 a22.189795164238134,22.189795164238134 0 0,0 0.3392637706184978,-0.17323049862787832 l 0.5319500328545747 1.064256404909299" fill="#ff0801" stroke="none" /><path d="M 91.5904679813234 80.7573450057729 l -0.5522983606629174 -1.2637667333343716 a22.379180856694862,22.379180856694862 0 0,0 0.3533405437379694,-0.15082006719425248 l 0.5305227417545167 1.273061450188028" fill="#ff0b01" stroke="none" /><path d="M 93.61358852112211 79.99465700312896 l -0.5778443016028322 -1.8100890446199638 a22.900085889202927,22.900085889202927 0 0,0 0.375517099237693,-0.11633615724672078 l 0.546686569493523 1.8197417896733266" fill="#ff1202" stroke="none" /><path d="M 93.95794788825049 79.88797359093562 l -3.885278042465263 -12.932826985167011 a34.50382906051194,34.50382906051194 0 0,0 0.5687216649424836,-0.16554658802640546 l 3.6626963651411546 12.997617267495938" fill="#ffb010" stroke="none" /></svg>