<?xml version="1.0" encoding="utf-8" ?>
<svg baseProfile="full" height="200mm" version="1.1" viewBox="0,0,200,200" width="200mm" xmlns="http://www.w3.org/2000/svg" xmlns:ev="http://www.w3.org/2001/xml-events" xmlns:xlink="http://www.w3.org/1999/xlink"><defs /><rect fill="#1a1a1a" height="200" width="200" x="0" y="0" /><text alignment-baseline="middle" fill="#e1ed5e" style="dominant-baseline: central; font-size:9.0px; font-family:Arial;" text-anchor="middle" x="100.0" y="100.0">2021</text><line stroke="#e1ed5e" stroke-width="0.3" x1="100.0" x2="100.0" y1="15.0" y2="10.0" /><path d="M 100.0 14.0 a86.0,86.0 0 0,1 42.46469731375804,11.215312516191453" fill="none" id="id25" stroke="none" /><text fill="#e1ed5e" style="font-size:6.75px; font-family:Arial;" text-anchor="middle"><textPath startOffset="22.20632615414155" xlink:href="#id25">January</textPath></text><path d="M 100.36148047927253 79.00311137660856 l 0.9084734162014916 -52.76941973653159 a73.77723925404013,73.77723925404013 0 0,0 1.269577580726941,0.032789443291467615 l -1.8166776321233005 52.74596350109776" fill="#40ffc5" stroke="none" /><path d="M 103.2404852339499 79.25152402106235 l 4.691645398976184 -30.040097341747543 a51.40425932088138,51.40425932088138 0 0,0 0.8730665704677089,0.14406346485021432 l -5.2080411755827685 29.954887613957705" fill="#96ff23" stroke="none" /><path d="M 105.71112130821622 79.79150937346287 l 10.590350237620225 -37.473375534994176 a59.941101578437184,59.941101578437184 0 0,0 0.9904832670548298,0.2891492264928298 l -11.233823722398482 37.285527979582646" fill="#3aff2e" stroke="none" /><path d="M 106.74666289553966 80.11325718540242 l 9.764159340116581 -28.781240237454817 a51.39241019111966,51.39241019111966 0 0,0 0.8352930691805311,0.2914173504277371 l -10.258134413360386 28.608902033854875" fill="#96ff23" stroke="none" /><path d="M 108.43124777332544 80.76684994638697 l 12.203529452604487 -27.838384003872477 a51.39575225336014,51.39575225336014 0 0,0 0.8072018156194976,0.3621679253003085 l -12.680913386690765 27.624195748055637" fill="#96ff23" stroke="none" /><path d="M 109.73455568895987 81.39251694778311 l 7.055119904552375 -13.485774620838745 a36.21975144316324,36.21975144316324 0 0,0 0.5499451029126643,0.2937616281709282 l -7.28621005399335 13.362334266166062" fill="#ffab0f" stroke="none" /><path d="M 110.36928655335952 81.73862282372117 l 22.948229230859038 -40.41418542692811 a67.47502134000781,67.47502134000781 0 0,0 1.0050670072441021,0.5821996831822431 l -23.64049297056847 40.01318158635582" fill="#38ff7e" stroke="none" /><line stroke="#e1ed5e" stroke-width="0.3" x1="143.23703022742887" x2="145.7803849466894" y1="26.81831364943548" y2="22.513508569990506" /><path d="M 143.74570117128098 25.957352633546492 a86.0,86.0 0 0,1 28.547481713284135,27.462654790039103" fill="none" id="id26" stroke="none" /><text fill="#e1ed5e" style="font-size:6.75px; font-family:Arial;" text-anchor="middle"><textPath startOffset="19.985693538727396" xlink:href="#id26">February</textPath></text><path d="M 112.19680574252982 82.90503203632743 l 23.420252777963263 -32.82568234601993 a61.3241076983174,61.3241076983174 0 0,0 0.854024881752267,0.6204853965677677 l -23.98182297606932 32.41767771463549" fill="#30ff33" stroke="none" /><path d="M 113.89432698308785 84.25364557470407 l 14.266817729476854 -16.168495873379296 a42.5629855756015,42.5629855756015 0 0,0 0.5451893073784366,0.4894763431545647 l -14.54301802445128 15.920520521455435" fill="#fffe18" stroke="none" /><path d="M 116.82858285166822 87.43820079747576 l 10.42914895254861 -7.784902397895308 a34.01429418828397,34.01429418828397 0 0,0 0.3461964941427027,0.4722116289472011 l -10.56160805920494 7.604228325276613" fill="#ff8d0d" stroke="none" /><path d="M 117.65298651832404 88.62581576622439 l 33.222420554458125 -21.40589252057367 a60.521405112921194,60.521405112921194 0 0,0 0.5567173954397759,0.8805932236140257 l -33.58596554614385 20.83085164924544" fill="#34ff2f" stroke="none" /><line stroke="#e1ed5e" stroke-width="0.3" x1="172.23445277983987" x2="176.4835382374775" y1="55.19839476539836" y2="52.563006222186495" /><path d="M 173.08426987136738 54.67131705675599 a86.0,86.0 0 0,1 12.851231095245387,41.99856678651699" fill="none" id="id27" stroke="none" /><text fill="#e1ed5e" style="font-size:6.75px; font-family:Arial;" text-anchor="middle"><textPath startOffset="22.20632615414155" xlink:href="#id27">March</textPath></text><path d="M 119.34039704204932 91.81776055985345 l 27.998371915457366 -11.845123057632541 a51.400917258640895,51.400917258640895 0 0,0 0.3377243740880673,0.8178263599113149 l -28.198117976431632 11.361422127267923" fill="#96ff23" stroke="none" /><path d="M 119.85752413597 93.16781622104841 l 40.22643288343649 -13.840314650982256 a63.540806435278284,63.540806435278284 0 0,0 0.34694099151395885,1.0373094051438245 l -40.45871116872221 13.145832142916118" fill="#33ff4f" stroke="none" /><path d="M 120.18372546131832 94.20196356495316 l 29.216598907041774 -8.392846270914033 a51.3981828440805,51.3981828440805 0 0,0 0.23695352705504694,0.8524479099713899 l -29.35673920466318 7.888687057523692" fill="#96ff23" stroke="none" /><path d="M 120.53481517161879 95.60439243477599 l 29.736399330755606 -6.365265076329767 a51.410031973842216,51.410031973842216 0 0,0 0.17778251042728302,0.8669306590168997 l -29.841561137097887 5.852458761149456" fill="#96ff23" stroke="none" /><path d="M 120.91429891909075 98.10471618934814 l 33.32114795596164 -3.019610292345153 a54.4576889133234,54.4576889133234 0 0,0 0.07656625596015483,0.9343022579285337 l -33.368188695741296 2.4455941172088504" fill="#74ff27" stroke="none" /><line stroke="#e1ed5e" stroke-width="0.3" x1="184.98032266829074" x2="189.97916517819016" y1="98.17113171792111" y2="98.06355123074" /><path d="M 185.9800911702706 98.14961562048488 a86.0,86.0 0 0,1 -9.607161424134198,41.387399972396054" fill="none" id="id28" stroke="none" /><text fill="#e1ed5e" style="font-size:6.75px; font-family:Arial;" text-anchor="middle"><textPath startOffset="21.466115282336823" xlink:href="#id28">April</textPath></text><path d="M 120.9764740272857 100.99374915477107 l 41.67283281090202 1.9742280008013524 a62.719570595639404,62.719570595639404 0 0,0 -0.060371018690718564,1.0779650936792087 l -41.63267544132377 -2.6912648108159845" fill="#32ff45" stroke="none" /><path d="M 120.81339534386255 102.79330883721812 l 42.42507062604277 5.6937526406172365 a63.80543699995659,63.80543699995659 0 0,0 -0.15546027306682075,1.087288787747771 l -42.32077630195935 -6.423186900345417" fill="#33ff52" stroke="none" /><path d="M 120.70491114924044 103.5080841355445 l 26.632197089575524 4.512358803725738 a48.011762322950275,48.011762322950275 0 0,0 -0.14507224423602344,0.8136421883329211 l -26.55057840300031 -4.970119742791877" fill="#beff1f" stroke="none" /><path d="M 120.5718875245553 104.21870165774334 l 20.09151271495688 4.120190619163527 a41.50962832216901,41.50962832216901 0 0,0 -0.14956504424704764,0.69871809395514 l -20.017613631985387 -4.465422532534836" fill="#fff016" stroke="none" /><path d="M 120.41448212921028 104.9243191809786 l 28.131161690400077 6.785713113781853 a49.93800546882912,49.93800546882912 0 0,0 -0.20876151746831292,0.8338984892351888 l -28.010188858636702 -7.268939442414438" fill="#a7ff21" stroke="none" /><path d="M 120.23288151984713 105.62410040840565 l 44.12892771712545 12.266444606663432 a66.8020515343104,66.8020515343104 0 0,0 -0.31749221972563896,1.105232067931134 l -43.91124286051371 -13.024234150099149" fill="#37ff76" stroke="none" /><path d="M 120.13307415673323 105.97154293290107 l 27.964755240835807 8.294447992825427 a50.16891158726255,50.16891158726255 0 0,0 -0.2526917951637732,0.8258114072446299 l -27.8178366731659 -8.774586372622116" fill="#a4ff21" stroke="none" /><path d="M 119.9155931802556 106.66101706037122 l 17.999208246418597 6.020058359167082 a39.97926763986747,39.97926763986747 0 0,0 -0.22390135460109506,0.6507621423716812 l -17.89291606087427 -6.3289932046280635" fill="#ffdd14" stroke="none" /><path d="M 119.67450827220406 107.3425965602758 l 15.961004967480703 5.956703900871607 a38.036314182786214,38.036314182786214 0 0,0 -0.23420538128632798,0.6114363463161369 l -15.856105306600867 -6.230563814020887" fill="#ffc312" stroke="none" /><path d="M 119.41010516605496 108.01547362559984 l 42.5113288711893 17.55520809604529 a66.99346055353811,66.99346055353811 0 0,0 -0.4493315802617905,1.062087125335802 l -42.20284630973519 -18.284369747047258" fill="#37ff78" stroke="none" /><path d="M 119.26925614724726 108.34839909993367 l 28.13541672901068 12.189660353354448 a51.662509584918766,51.662509584918766 0 0,0 -0.360552445944091,0.8129505825380415 l -27.921423198335315 -12.672159272385176" fill="#93ff23" stroke="none" /><path d="M 118.97047184881838 109.00673069616215 l 16.50608627132824 7.836698795804217 a39.27196574024508,39.27196574024508 0 0,0 -0.2951881856398189,0.6081750942705255 l -16.36874482907371 -8.119662846040018" fill="#ffd313" stroke="none" /><path d="M 118.64920377521936 109.65438752849418 l 19.207986469102067 9.943660182489632 a42.629219172731084,42.629219172731084 0 0,0 -0.3429571264554388,0.6487456364860541 l -19.033976834421736 -10.27282083406182" fill="#ffff18" stroke="none" /><line stroke="#e1ed5e" stroke-width="0.3" x1="174.80103733775053" x2="179.2010983576182" y1="140.37084112569926" y2="142.7455964860345" /><path d="M 175.68104954172406 140.8457921977663 a86.0,86.0 0 0,1 -30.038265399797805,32.042727171017184" fill="none" id="id29" stroke="none" /><text fill="#e1ed5e" style="font-size:6.75px; font-family:Arial;" text-anchor="middle"><textPath startOffset="22.206326154141568" xlink:href="#id29">May</textPath></text><path d="M 118.30583269289576 110.29060199501025 l 44.39493498139939 24.956559701610075 a71.92877501121254,71.92877501121254 0 0,0 -0.6160117430938656,1.0740683978685048 l -43.95877124215314 -25.717047945336894" fill="#3dffb1" stroke="none" /><path d="M 118.12598468904814 110.60418214915192 l 23.421722978239796 13.702329609618285 a48.135418625848175,48.135418625848175 0 0,0 -0.4245523850370877,0.7115742175297205 l -23.18238971750448 -14.10346592103411" fill="#bcff1f" stroke="none" /><path d="M 117.75023020441432 111.22182372390056 l 15.838303471217015 10.013089835614553 a39.738031510872545,39.738031510872545 0 0,0 -0.3705006337523033,0.5750252113235637 l -15.663597974087663 -10.28423664685957" fill="#ffd914" stroke="none" /><path d="M 117.35343817320211 111.8261652097733 l 15.36524568063729 10.471235273052642 a39.59401901069171,39.59401901069171 0 0,0 -0.3886607219366249,0.559894757636103 l -15.182724051538528 -10.734171292875764" fill="#ffd814" stroke="none" /><path d="M 116.93607887273984 112.41649034213515 l 35.366092450656176 25.928241634457606 a64.85241395274815,64.85241395274815 0 0,0 -0.6677906592813238,0.894614716897216 l -34.914540524679765 -26.533169230864136" fill="#34ff5f" stroke="none" /><path d="M 116.71984013943494 112.70617746262583 l 26.738826798604133 20.32006739371621 a54.58377580694165,54.58377580694165 0 0,0 -0.5749313856663247,0.7431763175044412 l -26.38508859571974 -20.777321705333907" fill="#73ff27" stroke="none" /><path d="M 116.27256486870786 113.27417163493432 l 14.693312201000102 11.985913076113459 a39.96194968098497,39.96194968098497 0 0,0 -0.43939876349487467,0.5292841165500914 l -14.484817437611685 -12.23705844977732" fill="#ffdc14" stroke="none" /><path d="M 115.56566222782051 114.09645910891815 l 16.830615782323154 15.242016926808946 a43.70657850952705,43.70657850952705 0 0,0 -0.5098134952440778,0.553301859699272 l -16.565755879083355 -15.529470041309551" fill="#f2ff19" stroke="none" /><path d="M 115.32070863581623 114.36230785411682 l 38.40051977306836 35.99834053691113 a73.63535352073959,73.63535352073959 0 0,0 -0.8748351566818299,0.9172611642360335 l -37.775178065007566 -36.65400881772967" fill="#40ffc3" stroke="none" /><path d="M 115.07121518719521 114.62390073753431 l 28.37929945519799 27.537000373147272 a60.54328042940436,60.54328042940436 0 0,0 -0.7321682692828074,0.7416825912408885 l -27.901090560859647 -28.021423458368826" fill="#34ff2f" stroke="none" /><path d="M 114.55890576462653 115.13401014063108 l 14.638947203168144 15.217213367724055 a42.115453059216705,42.115453059216705 0 0,0 -0.5267723970024888,0.49809618084106905 l -14.374838971774848 -15.466944185311046" fill="#fff817" stroke="none" /><path d="M 114.0293411484842 115.62618273729858 l 15.674849166406359 17.458985055782342 a44.463099871236565,44.463099871236565 0 0,0 -0.573907773027466,0.5064068825841577 l -15.371999040472305 -17.72621508013879" fill="#e9ff1a" stroke="none" /><path d="M 113.48314897796784 116.09983520530334 l 21.618021859219226 25.813449808112406 a54.67006177751414,54.67006177751414 0 0,0 -0.7266689198291104,0.5979990496511715 l -21.170482810845424 -26.181743976620755" fill="#72ff27" stroke="none" /><path d="M 113.20401910651253 116.32954008644616 l 18.269453656032724 22.594012734085833 a50.05619294260623,50.05619294260623 0 0,0 -0.6746681121666335,0.5359971517527666 l -17.87782805114874 -22.905143799843724" fill="#a6ff21" stroke="none" /><path d="M 112.92097659922987 116.55440617244103 l 2.0406166257786325 2.614446068061839 a24.316541037920107,24.316541037920107 0 0,0 -0.33217700219944196,0.25469916053250663 l -1.9953108950856968 -2.649184570421717" fill="#ff0000" stroke="none" /><path d="M 112.34349029814194 116.9893568818739 l 10.17316900308097 14.002165889738395 a38.30762887194548,38.30762887194548 0 0,0 -0.5368042053295532,0.38299554746700054 l -9.930637469902532 -14.175205699049615" fill="#ffc712" stroke="none" /><path d="M 112.04921762599082 117.19931262002967 l 3.595467433499627 5.132247613364083 a27.26636670090713,27.26636670090713 0 0,0 -0.38671902872443126,0.26598887424903417 l -3.5065915201523126 -5.193377276978211" fill="#ff2c04" stroke="none" /><path d="M 111.7513745106137 117.40417183066458 l 10.35485849866068 15.335885723847657 a39.50439097787873,39.50439097787873 0 0,0 -0.5668415482144548,0.3756716692316499 l -10.089342251706263 -15.511855414170624" fill="#ffd614" stroke="none" /><path d="M 111.45004920935366 117.60387380957326 l 26.45957131850887 40.68025787748794 a69.52826285102503,69.52826285102503 0 0,0 -1.0088822363224617,0.6439163768319026 l -25.755407280139476 -41.12968868314365" fill="#3aff96" stroke="none" /><path d="M 111.1453310114006 117.79835938074945 l 20.634156785744555 32.95138902700565 a59.87881769122817,59.87881769122817 0 0,0 -0.8782819682075966,0.5395125190410152 l -20.06389561760465 -33.30169001287505" fill="#3bff2e" stroke="none" /><line stroke="#e1ed5e" stroke-width="0.3" x1="143.8653032363475" x2="146.44561519142675" y1="172.8068346515853" y2="177.08958963109032" /><path d="M 144.38136562736335 173.6633856474863 a86.0,86.0 0 0,1 -40.68145358897372,12.25698825130547" fill="none" id="id30" stroke="none" /><text fill="#e1ed5e" style="font-size:6.75px; font-family:Arial;" text-anchor="middle"><textPath startOffset="21.466115282336833" xlink:href="#id30">June</textPath></text><path d="M 110.21172684928248 118.3499491758327 l 10.274221394302621 18.462248666585992 a42.1285174843386,42.1285174843386 0 0,0 -0.6366966866343741,0.3471777989603215 l -9.954901895799598 -18.636367117306087" fill="#fff817" stroke="none" /><path d="M 109.89434966115114 118.52300852407294 l 20.13068345604973 37.68623851205607 a63.72583515386508,63.72583515386508 0 0,0 -0.9719983211371354,0.5085035821412555 l -19.4789942323861 -38.027171513142044" fill="#33ff51" stroke="none" /><path d="M 109.57404056367764 118.69057910512821 l 7.155008974620121 13.968110992279945 a36.69402045747189,36.69402045747189 0 0,0 -0.5646442534400422,0.2831243504972576 l -6.913510813497318 -14.089203183686504" fill="#ffb110" stroke="none" /><path d="M 109.2508944713604 118.85261126421891 l 27.090174876150456 55.20769235892817 a82.49607199178229,82.49607199178229 0 0,0 -1.2802107048506026,0.6145789366047029 l -26.135851503299623 -55.66582557203244" fill="#4be0ff" stroke="none" /><path d="M 108.92500713936063 119.00905698771935 l 6.0713394390196225 12.931131100067649 a35.28549313502799,35.28549313502799 0 0,0 -0.5520197038088432,0.2534051711619275 l -5.847851739443359 -13.03372334156365" fill="#ff9e0e" stroke="none" /><path d="M 108.59647513512805 119.15986991738527 l 18.794241049416286 41.88870531729105 a66.91173194056626,66.91173194056626 0 0,0 -1.0549090984935192,0.4624411478588475 l -18.070411276265013 -42.20601101844435" fill="#37ff77" stroke="none" /><path d="M 108.2653958097858 119.30500536409082 l 8.615412643583209 20.122519371826666 a42.88929237980874,42.88929237980874 0 0,0 -0.6811810995535367,0.28473375485880126 l -8.267760084532211 -20.26783816970544" fill="#fcff18" stroke="none" /><path d="M 107.93186726928326 119.44442032107085 l 2.835522914925276 6.95108699074552 a28.507183263646755,28.507183263646755 0 0,0 -0.45595057331766625,0.18143214287051848 l -2.715451265565744 -6.998865978022108" fill="#ff3e05" stroke="none" /><path d="M 107.59598834532513 119.57807347666477 l 15.214505627856981 39.21421354952909 a63.06228388720901,63.06228388720901 0 0,0 -1.0153921966254698,0.3839344451072423 l -14.537243210471237 -39.47029624474297" fill="#32ff49" stroke="none" /><path d="M 106.91757812671514 119.82793768551818 l 19.31925774551614 55.37502167546286 a79.64833113905004,79.64833113905004 0 0,0 -1.2983825938064373,0.44048187033516617 l -18.363205418772473 -55.699366532696146" fill="#47fcff" stroke="none" /><path d="M 106.57524785965236 119.94407469862006 l 11.536530598471646 34.992662319348554 a57.845324729813804,57.845324729813804 0 0,0 -0.9483290757503837,0.30362502281010734 l -10.932480177630323 -35.18606018881837" fill="#50ff2b" stroke="none" /><path d="M 106.2309692047433 120.05430185196036 l 1.8402900120897272 5.922951981451102 a27.20225987065785,27.20225987065785 0 0,0 -0.44835156633402495,0.1350846490524613 l -1.7380634713154564 -5.953751999609289" fill="#ff2b04" stroke="none" /><path d="M 105.88484417918355 120.15858648285463 l 8.112722441842097 27.790203440519775 a49.95015842243088,49.95015842243088 0 0,0 -0.8274334887333771,0.23384096892577697 l -7.633157785004114 -27.925733202784073" fill="#a7ff21" stroke="none" /><path d="M 105.53697534728816 120.25689768951611 l 2.2255566356336107 8.142148057844247 a29.44083392410191,29.44083392410191 0 0,0 -0.4899929918130049,0.12941160261481516 l -2.0850732010091084 -8.179251009762647" fill="#ff4c07" stroke="none" /><path d="M 105.18746579009965 120.34920634021253 l 1.0606239463199456 4.160577901877681 a25.293638507501555,25.293638507501555 0 0,0 -0.42282136737862136,0.10391920490890627 l -0.9888492941981131 -4.1782183651006175" fill="#ff0f01" stroke="none" /><path d="M 104.83641907484287 120.43548508189849 l 5.640331439762347 23.832283185255488 a45.49063209826531,45.49063209826531 0 0,0 -0.763549105048611,0.17378129040660376 l -5.2292621853208745 -23.925841209239774" fill="#dcff1b" stroke="none" /><path d="M 104.48393922423573 120.51570834832081 l 11.275337096120301 51.58890783860581 a73.8067101665244,73.8067101665244 0 0,0 -1.2434973457487364,0.26058695909987495 l -10.385648288942187 -51.775350778432234" fill="#40ffc5" stroke="none" /><path d="M 104.13013068566511 120.58985236759428 l 10.591440763969755 52.80128361244306 a74.85307947163587,74.85307947163587 0 0,0 -1.2654889219746985,0.24253396378547007 l -9.680984227423354 -52.975774774577" fill="#41ffd0" stroke="none" /><path d="M 103.7750983002368 120.6578951692458 l 1.3635227515648658 7.461397776302051 a28.584962166698013,28.584962166698013 0 0,0 -0.48478874648104936,0.08428673763262857 l -1.2348850336117665 -7.4837630924556855" fill="#ff4006" stroke="none" /><path d="M 103.41894727170886 120.7198165907248 l 5.370525646077722 32.546950139683204 a53.98706578509527,53.98706578509527 0 0,0 -0.918202082259225,0.14340428146932221 l -4.80948770020998 -32.634572728499634" fill="#79ff26" stroke="none" /><path d="M 103.06178313531738 120.77559828337769 l 1.4053309505048361 9.535812953604033 a30.63881132539533,30.63881132539533 0 0,0 -0.5224229683640571,0.07240306308632917 l -1.2409793909539486 -9.558590582182964" fill="#ff5d08" stroke="none" /><path d="M 102.70371172650421 120.8252237178851 l 5.253068695665491 40.461536531521354 a61.801111127186445,61.801111127186445 0 0,0 -1.0561297146905435,0.12788260039131993 l -4.555811557923567 -40.54596466063802" fill="#30ff39" stroke="none" /><path d="M 101.98527174616119 120.90594882070398 l 4.1231175098227535 43.41858176785046 a64.61391223831363,64.61391223831363 0 0,0 -1.108146078360857,0.09561550647649605 l -3.3751271137203553 -43.48312152660562" fill="#34ff5c" stroke="none" /><path d="M 101.62511606390274 120.93702456842531 l 3.098369041581015 39.91753585269636 a61.03760181715592,61.03760181715592 0 0,0 -1.0482110575244787,0.07229077161659375 l -2.410795223277606 -39.96495496882924" fill="#2fff30" stroke="none" /><path d="M 100.90346689309514 120.98055641714683 l 1.0458120437166227 24.286134613919483 a45.308641618078966,45.308641618078966 0 0,0 -0.7794804814227991,0.026846883842553945 l -0.6276112106191714 -24.30053829618813" fill="#deff1b" stroke="none" /><line stroke="#e1ed5e" stroke-width="0.3" x1="102.19456741930631" x2="102.32365962044197" y1="184.97166512339345" y2="189.96999836594603" /><path d="M 102.22038585953345 185.97133177190398 a86.0,86.0 0 0,1 -42.740103519485714,-10.115201625700543" fill="none" id="id31" stroke="none" /><text fill="#e1ed5e" style="font-size:6.75px; font-family:Arial;" text-anchor="middle"><textPath startOffset="22.20632615414155" xlink:href="#id31">July</textPath></text><path d="M 100.18074693466247 120.99922214144158 l 0.2809619953124946 32.642231880101946 a53.64344102200553,53.64344102200553 0 0,0 -0.9234178599498777,0.0 l 0.2809619953124721 -32.642231880101946" fill="#7dff26" stroke="none" /><path d="M 99.45781275523022 120.99299961872073 l -1.6265617343093406 62.97899885616221 a84.0,84.0 0 0,0 -1.445118593301428,-0.04977280629562486 l 2.7104006792854114 -62.94166925144049" fill="#4dd2ff" stroke="none" /><path d="M 99.09653310690486 120.98055641714683 l -1.410524109156518 32.755578401463154 a53.78593440298616,53.78593440298616 0 0,0 -0.9246363843336862,-0.047793139496916895 l 1.974148561903693 -32.726445455204036" fill="#7bff26" stroke="none" /><path d="M 98.37488393609728 120.93702456842531 l -0.6936468137163151 8.936531182709293 a29.96341092897756,29.96341092897756 0 0,0 -0.5138806050436409,-0.04433978089998315 l 0.8473717365014978 -8.923267149530647" fill="#ff5407" stroke="none" /><path d="M 97.2962882734958 120.8252237178851 l -3.0152767650841192 23.22504007681613 a44.41995688595031,44.41995688595031 0 0,0 -0.7574055495986883,-0.10496950767928767 l 3.4146109058696386 -23.169696003644233" fill="#e9ff1a" stroke="none" /><path d="M 96.93821686468263 120.77559828337769 l -7.4239126867756005 50.37464146046843 a71.91874882449109,71.91874882449109 0 0,0 -1.223180848297873,-0.1910356925194505 l 8.289929398681991 -50.239387460601876" fill="#3dffb0" stroke="none" /><path d="M 96.58105272829116 120.7198165907248 l -4.659125023069313 28.235655094792453 a49.61747131758272,49.61747131758272 0 0,0 -0.8414911163196737,-0.14630401686561553 l 5.144465110861037 -28.15127249940583" fill="#abff21" stroke="none" /><path d="M 95.86986931433489 120.58985236759428 l -3.9048584351267905 19.46680742444072 a40.854584123034186,40.854584123034186 0 0,0 -0.6883190810705192,-0.14424395583939958 l 4.239368977626697 -19.39670748787478" fill="#ffe815" stroke="none" /><path d="M 94.81253420990036 120.34920634021253 l -5.876436058088395 23.051874408372534 a44.78910285160376,44.78910285160376 0 0,0 -0.7454390240254616,-0.19687722143498318 l 6.2723655249253465 -22.94730583763397" fill="#e5ff1a" stroke="none" /><path d="M 94.46302465271185 120.25689768951611 l -10.478428844842652 38.335092310066194 a60.74137357311303,60.74137357311303 0 0,0 -1.006191936790481,-0.2843598919165901 l 11.136751949737747 -38.149043624811085" fill="#32ff2f" stroke="none" /><path d="M 94.11515582081647 120.15858648285463 l -5.100697781083443 17.47248596769829 a39.20178243319492,39.20178243319492 0 0,0 -0.6461294260322625,-0.19467349578301826 l 5.4007021815559515 -17.382097102809546" fill="#ffd213" stroke="none" /><path d="M 93.42475214034765 119.94407469862007 l -4.567066573504385 13.852849176146217 a35.58627873667153,35.58627873667153 0 0,0 -0.58010763350929,-0.19680400570894604 l 4.804843939950901 -13.772182183539147" fill="#ffa20f" stroke="none" /><path d="M 92.7421414339146 119.70592522655815 l -4.202100494764183 11.409188728372866 a33.15842243088008,33.15842243088008 0 0,0 -0.5338976217376554,-0.20187439673768967 l 4.397868337262121 -11.335166081528545" fill="#ff810b" stroke="none" /><path d="M 90.10565033884886 118.52300852407294 l -13.672207875353301 25.59545919550638 a50.01821496260073,50.01821496260073 0 0,0 -0.7559352581038148,-0.4121961753127434 l 14.110765945325756 -25.35632236843387" fill="#a6ff21" stroke="none" /><line stroke="#e1ed5e" stroke-width="0.3" x1="58.666819895761336" x2="56.23545636021788" y1="174.27360380694188" y2="178.64263932499728" /><path d="M 58.180547188652646 175.14741091055294 a86.0,86.0 0 0,1 -31.652253787137756,-30.449443065178592" fill="none" id="id32" stroke="none" /><text fill="#e1ed5e" style="font-size:6.75px; font-family:Arial;" text-anchor="middle"><textPath startOffset="22.20632615414155" xlink:href="#id32">August</textPath></text><path d="M 87.95078237400918 117.19931262002967 l -17.41287057115041 24.855506296053253 a51.348051910473245,51.348051910473245 0 0,0 -0.7195394497832871,-0.5133722924630837 l 17.838137348782585 -24.55208974174595" fill="#97ff23" stroke="none" /><path d="M 85.18274418774928 114.88116024355367 l -14.251310770448294 14.312774372187148 a41.19790506228388,41.19790506228388 0 0,0 -0.4982187723161474,-0.5046929859692679 l 14.495570167819974 -14.065340892237215" fill="#ffec16" stroke="none" /><path d="M 84.9287848128048 114.62390073753433 l -8.173505133060543 7.930915076121964 a32.388836644048666,32.388836644048666 0 0,0 -0.3848001214832045,-0.40346138896452716 l 8.308811805922705 -7.7890465705749365" fill="#ff760a" stroke="none" /><path d="M 84.19399662182784 113.82643327865904 l -18.89018526103228 16.524347103067292 a46.09767213067319,46.09767213067319 0 0,0 -0.5172981775687379,-0.6017346479219435 l 19.171825948171797 -16.19673535598382" fill="#d5ff1c" stroke="none" /><path d="M 82.85270091963577 112.12312394758628 l -17.54348879131696 12.403229691944498 a42.48520667255024,42.48520667255024 0 0,0 -0.4170410458337507,-0.6007787309144967 l 17.754390744312847 -12.099409698842988" fill="#fffd17" stroke="none" /><path d="M 82.44556493220864 111.52570212397912 l -12.67838653024704 8.324238632344763 a36.16688609499559,36.16688609499559 0 0,0 -0.33720478115221375,-0.5233493086843085 l 12.819796174776299 -8.104767723739005" fill="#ffaa0f" stroke="none" /><line stroke="#e1ed5e" stroke-width="0.3" x1="26.63291911575756" x2="22.317208475507996" y1="142.92168965132927" y2="145.44649492493687" /><path d="M 25.769776987707644 143.4266507060508 a86.0,86.0 0 0,1 -11.730757126820373,-40.83630448921669" fill="none" id="id33" stroke="none" /><text fill="#e1ed5e" style="font-size:6.75px; font-family:Arial;" text-anchor="middle"><textPath startOffset="21.46611528233685" xlink:href="#id33">September</textPath></text><path d="M 81.87401531095188 110.60418214915194 l -18.339712861064132 10.729218802627232 a42.24761642963584,42.24761642963584 0 0,0 -0.36181664200904945,-0.6308578129583015 l 18.52168149922556 -10.411941143810623" fill="#fffa17" stroke="none" /><path d="M 81.35079622478065 109.6543875284942 l -26.99910625111908 13.976995362003214 a51.40243637784111,51.40243637784111 0 0,0 -0.40001212043302803,-0.7892618627740743 l 27.235697041338373 -13.510179287526455" fill="#96ff23" stroke="none" /><path d="M 80.87730276802145 108.67885076344099 l -18.892513286941625 8.574381603945296 a41.7472185650834,41.7472185650834 0 0,0 -0.2913536699230856,-0.6569256105540391 l 19.037308041595992 -8.247907656898562" fill="#fff316" stroke="none" /><path d="M 80.32549172779594 107.34259656027581 l -28.468104592364938 10.624398026393674 a51.38602989047874,51.38602989047874 0 0,0 -0.30213942927307097,-0.8313579456380793 l 28.646768282643233 -10.132792283749477" fill="#96ff23" stroke="none" /><path d="M 79.76711848015287 105.62410040840567 l -20.497505210785096 5.697657415439899 a42.27465675139976,42.27465675139976 0 0,0 -0.18885080342095165,-0.7027840937526464 l 20.592544090547822 -5.343982388511714" fill="#fffa17" stroke="none" /><path d="M 79.50377843672027 104.57218783832718 l -26.762308425845216 5.96999309030842 a48.42010156396938,48.42010156396938 0 0,0 -0.17446445380466444,-0.8150398459680462 l 26.861106918374322 -5.50843942492421" fill="#b9ff1f" stroke="none" /><path d="M 79.35854240842038 103.8639653848113 l -17.113067113642828 3.203470426528544 a38.41032132988035,38.41032132988035 0 0,0 -0.1160605494893263,-0.6509291971245956 l 17.165674105471343 -2.908422478670735" fill="#ffc812" stroke="none" /><path d="M 79.1416061653843 102.43462659150553 l -24.662570872465864 2.878656493739632 a45.83000332759444,45.83000332759444 0 0,0 -0.08471501197030237,-0.7843557982842914 l 24.708468185937217 -2.4537043735705586" fill="#d8ff1c" stroke="none" /><path d="M 79.07016306316243 101.71520430193888 l -17.908714190287004 1.4676226916661013 a38.96874954788119,38.96874954788119 0 0,0 -0.04903278417155463,-0.6690133832924229 l 17.931323533122896 -1.1591361718769178" fill="#ffcf13" stroke="none" /><path d="M 79.04373962182676 101.35467743843564 l -22.08928523433773 1.4279196668740448 a43.13538969024437,43.13538969024437 0 0,0 -0.041520172929913585,-0.7413705793381885 l 22.110591758155177 -1.0474773712004186" fill="#f9ff18" stroke="none" /><line stroke="#e1ed5e" stroke-width="0.3" x1="15.007084014347285" x2="10.007500721073583" y1="101.09737516637583" y2="101.16192664675087" /><path d="M 14.007167355692545 101.11028546245083 a86.0,86.0 0 0,1 10.666146001902534,-42.60595125391555" fill="none" id="id34" stroke="none" /><text fill="#e1ed5e" style="font-size:6.75px; font-family:Arial;" text-anchor="middle"><textPath startOffset="22.20632615414155" xlink:href="#id34">October</textPath></text><path d="M 79.00019446554 99.90962569577889 l -21.276586489651663 -0.09156545269180763 a42.27678351828007,42.27678351828007 0 0,0 0.009395497512652074,-0.7276916365564228 l 21.271857985021295 0.45779334730870236" fill="#fffa17" stroke="none" /><path d="M 79.05617556472873 98.46500227214037 l -32.03130370885756 -2.3476122312539505 a53.11721813104935,53.11721813104935 0 0,0 0.07468158492340955,-0.9113044975836067 l 31.98614764011465 2.8986306460453353" fill="#83ff25" stroke="none" /><path d="M 79.46518482838121 95.60439243477599 l -29.72392139795554 -6.362594095590167 a51.39727137256037,51.39727137256037 0 0,0 0.1926311309428566,-0.8635275888478204 l 29.609995880010644 6.873299853987947" fill="#96ff23" stroke="none" /><path d="M 79.71946130924805 94.55025226153421 l -29.39253581225692 -7.898306253751817 a51.43524935256586,51.43524935256586 0 0,0 0.2371244093593525,-0.8530626645393734 l 29.252224632331206 8.403080221710132" fill="#96ff23" stroke="none" /><path d="M 80.14247586403 93.16781622104843 l -28.790666332527397 -9.905722493671401 a51.447098482327576,51.447098482327576 0 0,0 0.2953232963485196,-0.834918727440054 l 28.61588995536907 10.399838847538065" fill="#96ff23" stroke="none" /><path d="M 80.52162464483688 92.15188598940014 l -26.165991286432043 -10.54264942901657 a49.21004354808374,49.21004354808374 0 0,0 0.3233294665248212,-0.7829679494530827 l 25.980640133021023 10.991491948922965" fill="#afff20" stroke="none" /><path d="M 80.95270993114464 91.15688171328213 l -6.7322342103059425 -3.1255860146199685 a28.422416412274483,28.422416412274483 0 0,0 0.20984108456861336,-0.44197884025005935 l 6.6774349318955775 3.2410072705105604" fill="#ff3d05" stroke="none" /><path d="M 81.26839172434947 90.50648371742162 l -15.759765275161747 -7.987332750485111 a38.66826777007769,38.66826777007769 0 0,0 0.30601434949646217,-0.5911223208160213 l 15.619941492505172 8.257427793561469" fill="#ffcb13" stroke="none" /><path d="M 81.6062741919709 89.86733742301443 l -24.78106079326204 -13.651292290563713 a49.29237980873566,49.29237980873566 0 0,0 0.4157984964585143,-0.7396591291566798 l 24.542404655511092 14.075834929655178" fill="#afff20" stroke="none" /><line stroke="#e1ed5e" stroke-width="0.3" x1="26.266209847984243" x2="21.928928074336255" y1="57.711370442889674" y2="55.22380399835377" /><path d="M 25.398753493254645 57.213857153982495 a86.0,86.0 0 0,1 29.58750427330803,-30.492523968695096" fill="none" id="id35" stroke="none" /><text fill="#e1ed5e" style="font-size:6.75px; font-family:Arial;" text-anchor="middle"><textPath startOffset="21.46611528233685" xlink:href="#id35">November</textPath></text><path d="M 82.34701348167596 88.62581576622439 l -17.845047252156704 -11.49793293592406 a42.22847552771307,42.22847552771307 0 0,0 0.39896531563828563,-0.6076515471540975 l 17.644485301160497 11.803402547055825" fill="#fff917" stroke="none" /><path d="M 82.7489923806493 88.02491185347247 l -10.477043907537782 -7.272822960617663 a33.75391715736628,33.75391715736628 0 0,0 0.3354293591870331,-0.4744410407071797 l 10.35030192854687 7.452090501656629" fill="#ff890c" stroke="none" /><path d="M 84.07557802195018 86.31012108654704 l -23.98673802284032 -20.620876507419496 a52.63201145849911,52.63201145849911 0 0,0 0.5965165220660456,-0.6819215030288597 l 23.62822963719643 21.030713566651297" fill="#88ff25" stroke="none" /><path d="M 84.5562425177563 85.77008943001954 l -12.64006719611118 -11.646584453686613 a38.18761845512812,38.18761845512812 0 0,0 0.449582246582465,-0.4795829944385463 l 12.43771762755826 11.86243686500321" fill="#ffc512" stroke="none" /><path d="M 85.05521093208273 85.24692304244772 l -9.351439216241875 -9.231478731088941 a34.14038108190223,34.14038108190223 0 0,0 0.41645444770611817,-0.4146660599588805 l 9.191148968368445 9.39108064169793" fill="#ff8e0d" stroke="none" /><path d="M 85.57189188830299 84.74124197986013 l -12.525624318094586 -13.2467451062442 a39.23094952183915,39.23094952183915 0 0,0 0.4946688640297603,-0.45974079815531504 l 12.295747570269969 13.460390490474163" fill="#ffd313" stroke="none" /><path d="M 86.65592168130627 83.78471172551755 l -13.515901257446275 -16.424081899452272 a42.27040321763914,42.27040321763914 0 0,0 0.5658126993231698,-0.4575145198836141 l 13.231185159558606 16.65430251660002" fill="#fffa17" stroke="none" /><path d="M 87.22198572758235 83.33499621200491 l -19.495997180813102 -25.42655376198131 a53.04065452335826,53.04065452335826 0 0,0 0.7293187143234358,-0.5493077352657947 l 19.055432312731277 25.75837808675296" fill="#84ff25" stroke="none" /><path d="M 88.09926311788651 82.69761687909137 l -17.8994011129738 -26.02379153151145 a52.585222587132336,52.585222587132336 0 0,0 0.750204087175812,-0.5065411485000012 l 17.448792331391445 26.328044592310114" fill="#89ff24" stroke="none" /><line stroke="#e1ed5e" stroke-width="0.3" x1="56.762969772571076" x2="54.21961505331055" y1="26.818313649435495" y2="22.513508569990535" /><path d="M 56.25429882871897 25.957352633546506 a86.0,86.0 0 0,1 42.265352541879196,-11.944610805530505" fill="none" id="id36" stroke="none" /><text fill="#e1ed5e" style="font-size:6.75px; font-family:Arial;" text-anchor="middle"><textPath startOffset="22.20632615414155" xlink:href="#id36">December</textPath></text><path d="M 89.63071344664047 81.73862282372117 l -10.500704759941547 -18.492818117357547 a42.266149683878524,42.266149683878524 0 0,0 0.635755168229162,-0.35379706280201506 l 10.180825502640339 18.670830577719748" fill="#fffa17" stroke="none" /><path d="M 90.58718382345135 81.22770947309562 l -13.60683663097027 -27.136564190543545 a51.356862801834524,51.356862801834524 0 0,0 0.7936560769237496,-0.38944359013598395 l 13.137709287036094 27.36676294081436" fill="#97ff23" stroke="none" /><path d="M 91.90106846888425 80.62456947434976 l -9.606137310781868 -22.981185279790765 a45.90808605448574,45.90808605448574 0 0,0 0.7317227104171953,-0.2984880660422653 l 9.209130730776293 23.143134232016607" fill="#d7ff1c" stroke="none" /><path d="M 93.59665428221793 80.00007090966166 l -9.652127205233892 -30.147030659226566 a52.65449442266237,52.65449442266237 0 0,0 0.8655762698678287,-0.2689387604573139 l 9.131765562655334 30.308709554566406" fill="#88ff25" stroke="none" /><path d="M 95.33964822691252 79.52364482259891 l -6.906077789178932 -30.34348233337409 a52.11946064034491,52.11946064034491 0 0,0 0.8764936542062854,-0.1915675641884907 l 6.382741410819125 30.45786339565845" fill="#8eff24" stroke="none" /><path d="M 96.75951476605007 79.25152402106235 l -3.7556792071826877 -24.047207189350786 a45.33872017824332,45.33872017824332 0 0,0 0.7721206058764454,-0.11379050640360952 l 3.3411896208775933 24.108292179915367" fill="#deff1b" stroke="none" /><path d="M 99.63851952072746 79.00311137660856 l -1.0573090903232156 -61.41466132470703 a82.42376191785183,82.42376191785183 0 0,0 1.4187895695957362,-0.012211969753363309 l 1.5044482684857268e-14 61.423761917851834" fill="#4be1ff" stroke="none" /></svg>